<svg xmlns="http://www.w3.org/2000/svg" width="160.0205078125" height="242.65940856933594" viewBox="0.9230575561523438 -20.968677520751953 160.0205078125 242.65940856933594"><title>Neo4j Graph Visualization</title><desc>Created using Neo4j (http://www.neo4j.com/)</desc><g class="layer relationships"><g class="relationship" transform="translate(131.94355446813788 8.031323201365028) rotate(519.5318078659135)"><path class="outline" fill="#A5ABB6" stroke="none" d="M 21.40063509461097,12.933012701892217 L 21.90063509461097,12.06698729810778 A 59.924028412839455 59.924028412839455 0 0 0 22.137355944616,12.202940166993152 L 21.641306294021323,13.071234324606166 A 60.924028412839455 60.924028412839455 0 0 1 21.40063509461097,12.933012701892217 Z M 78.76715240066511,14.832805504621966 L 78.32554497908555,13.935597120128243 A 59.924028412839455 59.924028412839455 0 0 0 78.57019276439398,13.814488059654057 L 77.23312260218636,11.128926036290219 L 85.05934917927755,11.142251351730229 L 80.35295298067082,17.39523742413917 L 79.0158828184632,14.709675400775335 A 60.924028412839455 60.924028412839455 0 0 1 78.76715240066511,14.832805504621966"/><text text-anchor="middle" pointer-events="none" font-size="8px" fill="#000000" x="50.000258407312884" y="23.566576659517267" transform="rotate(180 50.000258407312884 20.566576659517267)" font-family="sans-serif">PublicTransp…</text></g><g class="relationship" transform="translate(31.287527883415578 45.601391889856906) rotate(450.73265890968344)"><path class="outline" fill="#A5ABB6" stroke="none" d="M 25 0.5 L 40.85397097134622 0.5 L 40.85397097134622 -0.5 L 25 -0.5 Z M 58.85397097134622 0.5 L 74.70794194269244 0.5 L 74.70794194269244 3.5 L 81.70794194269244 0 L 74.70794194269244 -3.5 L 74.70794194269244 -0.5 L 58.85397097134622 -0.5 Z"/><text text-anchor="middle" pointer-events="none" font-size="8px" fill="#000000" x="49.85397097134622" y="3" transform="rotate(180 49.85397097134622 0)" font-family="sans-serif">trek</text></g><g class="relationship" transform="translate(29.923057507736896 152.30060976064973) rotate(382.0856501980903)"><path class="outline" fill="#A5ABB6" stroke="none" d="M 25 0.5 L 41.21139283714372 0.5 L 41.21139283714372 -0.5 L 25 -0.5 Z M 59.21139283714372 0.5 L 75.42278567428744 0.5 L 75.42278567428744 3.5 L 82.42278567428744 0 L 75.42278567428744 -3.5 L 75.42278567428744 -0.5 L 59.21139283714372 -0.5 Z"/><text text-anchor="middle" pointer-events="none" font-size="8px" fill="#000000" x="50.21139283714372" y="3" font-family="sans-serif">trek</text></g><g class="relationship" transform="translate(131.94355446813788 8.031323201365028) rotate(519.5318078659135)"><path class="outline" fill="#A5ABB6" stroke="none" d="M 25 0.5 L 41.21951635365475 0.5 L 41.21951635365475 -0.5 L 25 -0.5 Z M 59.21951635365475 0.5 L 75.4390327073095 0.5 L 75.4390327073095 3.5 L 82.4390327073095 0 L 75.4390327073095 -3.5 L 75.4390327073095 -0.5 L 59.21951635365475 -0.5 Z"/><text text-anchor="middle" pointer-events="none" font-size="8px" fill="#000000" x="50.21951635365475" y="3" transform="rotate(180 50.21951635365475 0)" font-family="sans-serif">trek</text></g><g class="relationship" transform="translate(131.94355446813788 8.031323201365028) rotate(519.5318078659135)"><path class="outline" fill="#A5ABB6" stroke="none" d="M 21.40063509461097,-12.933012701892217 L 21.90063509461097,-12.06698729810778 A 59.924028412839455 59.924028412839455 0 0 1 39.687621992934346,-18.845423549951605 L 39.48444761313101,-19.824566119443666 A 60.924028412839455 60.924028412839455 0 0 0 21.40063509461097,-12.933012701892217 Z M 60.541808022262856,-20.473905109621334 L 60.399349308560936,-19.484104364576964 A 59.924028412839455 59.924028412839455 0 0 1 78.57019276439398,-13.814488059654057 L 77.23312260218636,-11.128926036290219 L 85.05934917927755,-11.142251351730229 L 80.35295298067082,-17.39523742413917 L 79.0158828184632,-14.709675400775335 A 60.924028412839455 60.924028412839455 0 0 0 60.541808022262856,-20.473905109621334"/><text text-anchor="middle" pointer-events="none" font-size="8px" fill="#000000" x="50.00025840731288" y="-17.566576659517267" transform="rotate(180 50.00025840731288 -20.566576659517267)" font-family="sans-serif">road</text></g></g><g class="layer nodes"><g class="node" transform="translate(131.94355446813788,8.031323201365028)"><circle class="outline" cx="0" cy="0" r="25" fill="#F79767" stroke="#f36924" stroke-width="2px"/><text text-anchor="middle" pointer-events="none" font-family="sans-serif" dy="1.5625" font-size="25" fill="#FFFFFF"/><text text-anchor="middle" pointer-events="none" y="5" font-size="10px" fill="#FFFFFF" font-family="sans-serif"> Darjeeli…</text></g><g class="node" transform="translate(129.46346292482792,192.6907393893728)"><circle class="outline" cx="0" cy="0" r="25" fill="#57C7E3" stroke="#23b3d7" stroke-width="2px"/><text text-anchor="middle" pointer-events="none" font-family="sans-serif" dy="1.5625" font-size="25" fill="#2A2C34"/><text text-anchor="middle" pointer-events="none" y="5" font-size="10px" fill="#2A2C34" font-family="sans-serif"> Sandak…</text></g><g class="node" transform="translate(31.287527883415578,45.601391889856906)"><circle class="outline" cx="0" cy="0" r="25" fill="#F79767" stroke="#f36924" stroke-width="2px"/><text text-anchor="middle" pointer-events="none" font-family="sans-serif" dy="1.5625" font-size="25" fill="#FFFFFF"/><text text-anchor="middle" pointer-events="none" y="5" font-size="10px" fill="#FFFFFF" font-family="sans-serif"> Rimbik</text></g><g class="node" transform="translate(29.923057507736896,152.30060976064973)"><circle class="outline" cx="0" cy="0" r="25" fill="#F16667" stroke="#eb2728" stroke-width="2px"/><text text-anchor="middle" pointer-events="none" font-family="sans-serif" dy="1.5625" font-size="25" fill="#FFFFFF"/><text text-anchor="middle" pointer-events="none" y="5" font-size="10px" fill="#FFFFFF" font-family="sans-serif"> BhikeB…</text></g></g></svg>