<svg xmlns="http://www.w3.org/2000/svg" width="391.193115234375" height="413.1329040527344" viewBox="-94.79078674316406 -116.12516021728516 391.193115234375 413.1329040527344"><title>Neo4j Graph Visualization</title><desc>Created using Neo4j (http://www.neo4j.com/)</desc><g class="layer relationships"><g class="relationship" transform="translate(96.58874580726298 -87.12516354730847) rotate(384.63508102379944)"><path class="outline" fill="#A5ABB6" stroke="none" d="M 24.018736134675446,-6.953439040707552 L 24.277555179777966,-5.987513214418485 A 107.14976674525819 107.14976674525819 0 0 1 41.373796085392854,-9.109350041902616 L 41.274531665791855,-10.104411132992652 A 108.14976674525819 108.14976674525819 0 0 0 24.018736134675446,-6.953439040707552 Z M 59.334815681037,-10.390215651459457 L 59.267086823086274,-9.392511886907727 A 107.14976674525819 107.14976674525819 0 0 1 76.45354857528852,-6.813199823518521 L 75.76917210412948,-3.8923046104504646 L 83.38303348430716,-5.703137259658748 L 77.36605053683392,-10.70772677427593 L 76.68167406567488,-7.786831561207873 A 108.14976674525819 108.14976674525819 0 0 0 59.334815681037,-10.390215651459457"/><text text-anchor="middle" pointer-events="none" font-size="8px" fill="#000000" x="50.30660808270802" y="-7.125076062209828" font-family="sans-serif">trek</text></g><g class="relationship" transform="translate(194.50766403172705 -42.22184138234974) rotate(410.2831959225708)"><path class="outline" fill="#A5ABB6" stroke="none" d="M 21.40063509461097,-12.933012701892217 L 21.90063509461097,-12.06698729810778 A 66.77843251238563 66.77843251238563 0 0 1 44.45989007068657,-20.129561003671625 L 44.29771254011772,-21.116322600299 A 67.77843251238563 67.77843251238563 0 0 0 21.40063509461097,-12.933012701892217 Z M 62.369781740454485,-21.64281253913579 L 62.26532476015537,-20.648283133202114 A 66.77843251238563 66.77843251238563 0 0 1 85.25569152523893,-13.912697350199771 L 83.90948561502036,-11.231703197410065 L 91.735712200118,-11.218382585154728 L 87.05063273886368,-17.487356220586044 L 85.70442682864511,-14.80636206779634 A 67.77843251238563 67.77843251238563 0 0 0 62.369781740454485,-21.64281253913579"/><text text-anchor="middle" pointer-events="none" font-size="8px" fill="#000000" x="53.330673596665974" y="-18.485068717784927" font-family="sans-serif">trek</text></g><g class="relationship" transform="translate(267.40233016026974 45.52783042265581) rotate(499.07264903193027)"><path class="outline" fill="#A5ABB6" stroke="none" d="M 21.40063509461097,12.933012701892217 L 21.90063509461097,12.06698729810778 A 66.91749742534145 66.91749742534145 0 0 0 44.52724677930251,20.149697045105043 L 44.36537376484819,21.136508641708716 A 67.91749742534145 67.91749742534145 0 0 1 21.40063509461097,12.933012701892217 Z M 62.43740754699385,21.662406894606818 L 62.333192521293114,20.66785210555888 A 66.91749742534145 66.91749742534145 0 0 0 85.39153298587112,13.91457969852331 L 84.04515197937448,11.233673473877424 L 91.8713776777943,11.219841720805437 L 87.18670766119999,17.489121331384492 L 85.84032665470335,14.808215106738606 A 67.91749742534145 67.91749742534145 0 0 1 62.43740754699385,21.662406894606818"/><text text-anchor="middle" pointer-events="none" font-size="8px" fill="#000000" x="53.398357050063886" y="24.50370498181509" transform="rotate(180 53.398357050063886 21.50370498181509)" font-family="sans-serif">trek</text></g><g class="relationship" transform="translate(181.11030191439858 120.34846162895903) rotate(472.93547521800167)"><path class="outline" fill="#A5ABB6" stroke="none" d="M 25 0.5 L 48.24968545513011 0.5 L 48.24968545513011 -0.5 L 25 -0.5 Z M 66.2496854551301 0.5 L 89.49937091026023 0.5 L 89.49937091026023 3.5 L 96.49937091026023 0 L 89.49937091026023 -3.5 L 89.49937091026023 -0.5 L 66.2496854551301 -0.5 Z"/><text text-anchor="middle" pointer-events="none" font-size="8px" fill="#000000" x="57.24968545513011" y="3" transform="rotate(180 57.24968545513011 0)" font-family="sans-serif">trek</text></g><g class="relationship" transform="translate(96.58874580726298 -87.12516354730847) rotate(384.63508102379944)"><path class="outline" fill="#A5ABB6" stroke="none" d="M 24.018736134675446,6.953439040707552 L 24.277555179777966,5.987513214418485 A 107.14976674525819 107.14976674525819 0 0 0 39.88921768561673,8.950799312221292 L 39.77609809446594,9.944380691926995 A 108.14976674525819 108.14976674525819 0 0 1 24.018736134675446,6.953439040707552 Z M 60.83756263483739,10.27767897926762 L 60.75593872191776,9.281015777960533 A 107.14976674525819 107.14976674525819 0 0 0 76.45354857528852,6.813199823518521 L 75.76917210412948,3.8923046104504646 L 83.38303348430716,5.703137259658748 L 77.36605053683392,10.70772677427593 L 76.68167406567488,7.786831561207873 A 108.14976674525819 108.14976674525819 0 0 1 60.83756263483739,10.27767897926762"/><text text-anchor="middle" pointer-events="none" font-size="8px" fill="#000000" x="50.306608082708046" y="13.125076062209828" font-family="sans-serif">road</text></g><g class="relationship" transform="translate(194.50766403172705 -42.22184138234974) rotate(410.2831959225708)"><path class="outline" fill="#A5ABB6" stroke="none" d="M 25 0.5 L 43.038665070016094 0.5 L 43.038665070016094 -0.5 L 25 -0.5 Z M 64.0386650700161 0.5 L 82.07733014003219 0.5 L 82.07733014003219 3.5 L 89.07733014003219 0 L 82.07733014003219 -3.5 L 82.07733014003219 -0.5 L 64.0386650700161 -0.5 Z"/><text text-anchor="middle" pointer-events="none" font-size="8px" fill="#000000" x="53.538665070016094" y="3" font-family="sans-serif">road</text></g><g class="relationship" transform="translate(194.50766403172705 -42.22184138234974) rotate(410.2831959225708)"><path class="outline" fill="#A5ABB6" stroke="none" d="M 21.40063509461097,12.933012701892217 L 21.90063509461097,12.06698729810778 A 66.77843251238563 66.77843251238563 0 0 0 32.47374012080072,16.994901563814068 L 32.132071255995136,17.934721965179385 A 67.77843251238563 67.77843251238563 0 0 1 21.40063509461097,12.933012701892217 Z M 74.70001074804372,19.17484514150938 L 74.41363411350451,18.21672801756784 A 66.77843251238563 66.77843251238563 0 0 0 85.25569152523893,13.912697350199771 L 83.90948561502036,11.231703197410065 L 91.735712200118,11.218382585154728 L 87.05063273886368,17.487356220586044 L 85.70442682864511,14.80636206779634 A 67.77843251238563 67.77843251238563 0 0 1 74.70001074804372,19.17484514150938"/><text text-anchor="middle" pointer-events="none" font-size="8px" fill="#000000" x="53.33067359666598" y="24.485068717784927" font-family="sans-serif">twowheeler</text></g><g class="relationship" transform="translate(267.40233016026974 45.52783042265581) rotate(499.07264903193027)"><path class="outline" fill="#A5ABB6" stroke="none" d="M 25 0.5 L 43.10613144158835 0.5 L 43.10613144158835 -0.5 L 25 -0.5 Z M 64.10613144158836 0.5 L 82.2122628831767 0.5 L 82.2122628831767 3.5 L 89.2122628831767 0 L 82.2122628831767 -3.5 L 82.2122628831767 -0.5 L 64.10613144158836 -0.5 Z"/><text text-anchor="middle" pointer-events="none" font-size="8px" fill="#000000" x="53.60613144158835" y="3" transform="rotate(180 53.60613144158835 0)" font-family="sans-serif">road</text></g><g class="relationship" transform="translate(267.40233016026974 45.52783042265581) rotate(499.07264903193027)"><path class="outline" fill="#A5ABB6" stroke="none" d="M 21.40063509461097,-12.933012701892217 L 21.90063509461097,-12.06698729810778 A 66.91749742534145 66.91749742534145 0 0 1 32.53927407037938,-17.0209667992209 L 32.19825549355106,-17.96102335616734 A 67.91749742534145 67.91749742534145 0 0 0 21.40063509461097,-12.933012701892217 Z M 74.76859421639493,-19.199825088695192 L 74.4828179268541,-18.241528729348943 A 66.91749742534145 66.91749742534145 0 0 1 85.39153298587112,-13.91457969852331 L 84.04515197937448,-11.233673473877424 L 91.8713776777943,-11.219841720805437 L 87.18670766119999,-17.489121331384492 L 85.84032665470335,-14.808215106738606 A 67.91749742534145 67.91749742534145 0 0 0 74.76859421639493,-19.199825088695192"/><text text-anchor="middle" pointer-events="none" font-size="8px" fill="#000000" x="53.39835705006388" y="-18.50370498181509" transform="rotate(180 53.39835705006388 -21.50370498181509)" font-family="sans-serif">twowheeler</text></g><g class="relationship" transform="translate(96.58874580726298 -87.12516354730847) rotate(447.8792657083856)"><path class="outline" fill="#A5ABB6" stroke="none" d="M 21.40063509461097,12.933012701892217 L 21.90063509461097,12.06698729810778 A 64.14851064678429 64.14851064678429 0 0 0 23.56987580307629,12.99784730776451 L 23.09589730679688,13.878383726696 A 65.14851064678429 65.14851064678429 0 0 1 21.40063509461097,12.933012701892217 Z M 81.38731701204249,15.613401501066221 L 80.96654873473433,14.706233348620856 A 64.14851064678429 64.14851064678429 0 0 0 82.68819861249946,13.876301665427997 L 81.34537827707821,11.193610191035322 L 89.1716154419859,11.190169461843837 L 84.47862572639447,17.453223631284896 L 83.13580539097322,14.770532156892221 A 65.14851064678429 65.14851064678429 0 0 1 81.38731701204249,15.613401501066221"/><text text-anchor="middle" pointer-events="none" font-size="8px" fill="#000000" x="52.05150850422367" y="24.132640149914693" font-family="sans-serif">PublicTransport</text></g><g class="relationship" transform="translate(100.71585488746693 24.325825473229315) rotate(410.06242315474896)"><path class="outline" fill="#A5ABB6" stroke="none" d="M 25 0.5 L 50.117117801488135 0.5 L 50.117117801488135 -0.5 L 25 -0.5 Z M 68.11711780148813 0.5 L 93.23423560297627 0.5 L 93.23423560297627 3.5 L 100.23423560297627 0 L 93.23423560297627 -3.5 L 93.23423560297627 -0.5 L 68.11711780148813 -0.5 Z"/><text text-anchor="middle" pointer-events="none" font-size="8px" fill="#000000" x="59.117117801488135" y="3" font-family="sans-serif">trek</text></g><g class="relationship" transform="translate(96.58874580726298 -87.12516354730847) rotate(447.8792657083856)"><path class="outline" fill="#A5ABB6" stroke="none" d="M 25 0.5 L 41.76368886429577 0.5 L 41.76368886429577 -0.5 L 25 -0.5 Z M 62.76368886429577 0.5 L 79.52737772859155 0.5 L 79.52737772859155 3.5 L 86.52737772859155 0 L 79.52737772859155 -3.5 L 79.52737772859155 -0.5 L 62.76368886429577 -0.5 Z"/><text text-anchor="middle" pointer-events="none" font-size="8px" fill="#000000" x="52.26368886429577" y="3" font-family="sans-serif">road</text></g><g class="relationship" transform="translate(96.58874580726298 -87.12516354730847) rotate(447.8792657083856)"><path class="outline" fill="#A5ABB6" stroke="none" d="M 21.40063509461097,-12.933012701892217 L 21.90063509461097,-12.06698729810778 A 64.14851064678429 64.14851064678429 0 0 1 43.18721417530872,-19.747686060981515 L 43.019046962478264,-20.733444544855146 A 65.14851064678429 65.14851064678429 0 0 0 21.40063509461097,-12.933012701892217 Z M 61.09172270418097,-21.271369573973303 L 60.98248256629411,-20.27735418562439 A 64.14851064678429 64.14851064678429 0 0 1 82.68819861249946,-13.876301665427997 L 81.34537827707821,-11.193610191035322 L 89.1716154419859,-11.190169461843837 L 84.47862572639447,-17.453223631284896 L 83.13580539097322,-14.770532156892221 A 65.14851064678429 65.14851064678429 0 0 0 61.09172270418097,-21.271369573973303"/><text text-anchor="middle" pointer-events="none" font-size="8px" fill="#000000" x="52.05150850422368" y="-18.132640149914693" font-family="sans-serif">trek</text></g><g class="relationship" transform="translate(100.71585488746693 24.325825473229315) rotate(517.2748595058514)"><path class="outline" fill="#A5ABB6" stroke="none" d="M 24.018736134675446,-6.953439040707552 L 24.277555179777966,-5.987513214418485 A 138.51116739162723 138.51116739162723 0 0 1 49.24391130483057,-10.27896146990139 L 49.16534022525463,-11.275869983985956 A 139.51116739162723 139.51116739162723 0 0 0 24.018736134675446,-6.953439040707552 Z M 67.2157194783125,-11.526951555060009 L 67.16490751572388,-10.528243317155727 A 138.51116739162723 138.51116739162723 0 0 1 92.24096943582505,-6.932887302559905 L 91.5454135442576,-4.014634057602263 L 99.16615298932079,-5.796299096395452 L 93.16837729124833,-10.823891629170094 L 92.47282139968088,-7.905638384212452 A 139.51116739162723 139.51116739162723 0 0 0 67.2157194783125,-11.526951555060009"/><text text-anchor="middle" pointer-events="none" font-size="8px" fill="#000000" x="58.19341883737598" y="-8.193720155764566" transform="rotate(180 58.19341883737598 -11.193720155764566)" font-family="sans-serif">trek</text></g><g class="relationship" transform="translate(-13.182775926024929 72.02938764087641) rotate(422.49170669530474)"><path class="outline" fill="#A5ABB6" stroke="none" d="M 24.018736134675446,-6.953439040707552 L 24.277555179777966,-5.987513214418485 A 113.22009353104602 113.22009353104602 0 0 1 42.89136935401223,-9.339629292565789 L 42.79695411386797,-10.335162196305546 A 114.22009353104602 114.22009353104602 0 0 0 24.018736134675446,-6.953439040707552 Z M 60.85508332447088,-10.613539337285033 L 60.791399156250584,-9.61556923416667 A 113.22009353104602 113.22009353104602 0 0 1 79.49969391388717,-6.8387963634253115 L 78.81292653634004,-3.9184623809608 L 86.42826776922888,-5.723061479559425 L 80.41538375061667,-10.732575006711327 L 79.72861637306954,-7.812241024246816 A 114.22009353104602 114.22009353104602 0 0 0 60.85508332447088,-10.613539337285033"/><text text-anchor="middle" pointer-events="none" font-size="8px" fill="#000000" x="51.82821492453518" y="-7.3318844704307935" font-family="sans-serif">trek</text></g><g class="relationship" transform="translate(37.97674550795795 170.27119235626685) rotate(392.9019865076192)"><path class="outline" fill="#A5ABB6" stroke="none" d="M 24.018736134675446,6.953439040707552 L 24.277555179777966,5.987513214418485 A 119.83774421486035 119.83774421486035 0 0 0 44.54921407118739,9.588232456356266 L 44.4595542423587,10.5842049033117 A 120.83774421486035 120.83774421486035 0 0 1 24.018736134675446,6.953439040707552 Z M 62.51546931145463,10.85489942978684 L 62.45570633214987,9.856686834041511 A 119.83774421486035 119.83774421486035 0 0 0 82.8261945398214,6.865275219095652 L 82.13695387489993,3.945523978695435 L 89.75382087824215,5.743672207678924 L 83.74518209305002,10.75827687296261 L 83.05594142812855,7.838525632562392 A 120.83774421486035 120.83774421486035 0 0 1 62.51546931145463,10.85489942978684"/><text text-anchor="middle" pointer-events="none" font-size="8px" fill="#000000" x="53.489943303782226" y="13.55736402286918" font-family="sans-serif">trek</text></g><g class="relationship" transform="translate(100.71585488746693 24.325825473229315) rotate(517.2748595058514)"><path class="outline" fill="#A5ABB6" stroke="none" d="M 24.018736134675446,6.953439040707552 L 24.277555179777966,5.987513214418485 A 138.51116739162723 138.51116739162723 0 0 0 36.88807127367866,8.743797295213682 L 36.72029554538139,9.729622485089806 A 139.51116739162723 139.51116739162723 0 0 1 24.018736134675446,6.953439040707552 Z M 79.69895754328839,10.327457567988034 L 79.55866716618738,9.337347165006179 A 138.51116739162723 138.51116739162723 0 0 0 92.24096943582505,6.932887302559905 L 91.5454135442576,4.014634057602263 L 99.16615298932079,5.796299096395452 L 93.16837729124833,10.823891629170094 L 92.47282139968088,7.905638384212452 A 139.51116739162723 139.51116739162723 0 0 1 79.69895754328839,10.327457567988034"/><text text-anchor="middle" pointer-events="none" font-size="8px" fill="#000000" x="58.19341883737601" y="14.193720155764566" transform="rotate(180 58.19341883737601 11.193720155764566)" font-family="sans-serif">twowheeler</text></g><g class="relationship" transform="translate(-13.182775926024929 72.02938764087641) rotate(422.49170669530474)"><path class="outline" fill="#A5ABB6" stroke="none" d="M 24.018736134675446,6.953439040707552 L 24.277555179777966,5.987513214418485 A 113.22009353104602 113.22009353104602 0 0 0 30.59136809749123,7.486759894765086 L 30.388314886180233,8.46592759918363 A 114.22009353104602 114.22009353104602 0 0 1 24.018736134675446,6.953439040707552 Z M 73.31544345108014,9.12767562307856 L 73.14266849382784,8.142714296859879 A 113.22009353104602 113.22009353104602 0 0 0 79.49969391388717,6.8387963634253115 L 78.81292653634004,3.9184623809608 L 86.42826776922888,5.723061479559425 L 80.41538375061667,10.732575006711327 L 79.72861637306954,7.812241024246816 A 114.22009353104602 114.22009353104602 0 0 1 73.31544345108014,9.12767562307856"/><text text-anchor="middle" pointer-events="none" font-size="8px" fill="#000000" x="51.8282149245352" y="13.331884470430793" font-family="sans-serif">twowheeler</text></g><g class="relationship" transform="translate(37.97674550795795 170.27119235626685) rotate(392.9019865076192)"><path class="outline" fill="#A5ABB6" stroke="none" d="M 24.018736134675446,-6.953439040707552 L 24.277555179777966,-5.987513214418485 A 119.83774421486035 119.83774421486035 0 0 1 32.23148427379232,-7.830812959642273 L 32.03903771547287,-8.812120415127552 A 120.83774421486035 120.83774421486035 0 0 0 24.018736134675446,-6.953439040707552 Z M 74.98352610069502,-9.455944774273505 L 74.82058296960696,-8.46930931168805 A 119.83774421486035 119.83774421486035 0 0 1 82.8261945398214,-6.865275219095652 L 82.13695387489993,-3.945523978695435 L 89.75382087824215,-5.743672207678924 L 83.74518209305002,-10.75827687296261 L 83.05594142812855,-7.838525632562392 A 120.83774421486035 120.83774421486035 0 0 0 74.98352610069502,-9.455944774273505"/><text text-anchor="middle" pointer-events="none" font-size="8px" fill="#000000" x="53.489943303782205" y="-7.55736402286918" font-family="sans-serif">twowheeler</text></g><g class="relationship" transform="translate(100.71585488746693 24.325825473229315) rotate(324.64333281876)"><path class="outline" fill="#A5ABB6" stroke="none" d="M 25 0.5 L 45.00107700398848 0.5 L 45.00107700398848 -0.5 L 25 -0.5 Z M 63.00107700398848 0.5 L 83.00215400797696 0.5 L 83.00215400797696 3.5 L 90.00215400797696 0 L 83.00215400797696 -3.5 L 83.00215400797696 -0.5 L 63.00107700398848 -0.5 Z"/><text text-anchor="middle" pointer-events="none" font-size="8px" fill="#000000" x="54.00107700398848" y="3" font-family="sans-serif">trek</text></g><g class="relationship" transform="translate(-13.182775926024929 72.02938764087641) rotate(476.3721533565153)"><path class="outline" fill="#A5ABB6" stroke="none" d="M 24.018736134675446,-6.953439040707552 L 24.277555179777966,-5.987513214418485 A 128.4857559452976 128.4857559452976 0 0 1 46.72057331804226,-9.90987794197855 L 46.63642747288433,-10.906331391339165 A 129.4857559452976 129.4857559452976 0 0 0 24.018736134675446,-6.953439040707552 Z M 64.68965360954802,-11.167585512568138 L 64.63437696761564,-10.169114434941605 A 128.4857559452976 128.4857559452976 0 0 1 87.1814969412117,-6.897816663913635 L 86.4892167531023,-3.9787846083939944 L 94.10795176877576,-5.769001567578312 L 88.10453719202424,-10.789859404606489 L 87.41225700391483,-7.870827349086848 A 129.4857559452976 129.4857559452976 0 0 0 64.68965360954802,-11.167585512568138"/><text text-anchor="middle" pointer-events="none" font-size="8px" fill="#000000" x="55.66571633572087" y="-7.852055250957619" transform="rotate(180 55.66571633572087 -10.85205525095762)" font-family="sans-serif">trek</text></g><g class="relationship" transform="translate(-65.79078769335317 178.13699545697676) rotate(355.66514614305527)"><path class="outline" fill="#A5ABB6" stroke="none" d="M 21.40063509461097,12.933012701892217 L 21.90063509461097,12.06698729810778 A 56.429824718165456 56.429824718165456 0 0 0 39.466028711356344,18.613143413736076 L 39.277307254298385,19.595174070918382 A 57.429824718165456 57.429824718165456 0 0 1 21.40063509461097,12.933012701892217 Z M 57.35073055731642,20.16957224852873 L 57.224747531264555,19.177539851302306 A 56.429824718165456 56.429824718165456 0 0 0 75.17036469084309,13.759972356271145 L 73.83836601661626,11.071891343381468 L 81.6645534999568,11.099988951890177 L 76.94636292314551,17.34408037345738 L 75.61436424891869,14.655999360567705 A 57.429824718165456 57.429824718165456 0 0 1 57.35073055731642,20.16957224852873"/><text text-anchor="middle" pointer-events="none" font-size="8px" fill="#000000" x="48.307152612408125" y="23.098420897974073" font-family="sans-serif">trek</text></g><g class="relationship" transform="translate(-13.182775926024929 72.02938764087641) rotate(476.3721533565153)"><path class="outline" fill="#A5ABB6" stroke="none" d="M 24.018736134675446,6.953439040707552 L 24.277555179777966,5.987513214418485 A 128.4857559452976 128.4857559452976 0 0 0 34.38332868969706,8.263042371263268 L 34.20316251498915,9.246678558830155 A 129.4857559452976 129.4857559452976 0 0 1 24.018736134675446,6.953439040707552 Z M 77.16573682421573,9.868403978537586 L 77.01410917345162,8.879966294349174 A 128.4857559452976 128.4857559452976 0 0 0 87.1814969412117,6.897816663913635 L 86.4892167531023,3.9787846083939944 L 94.10795176877576,5.769001567578312 L 88.10453719202424,10.789859404606489 L 87.41225700391483,7.870827349086848 A 129.4857559452976 129.4857559452976 0 0 1 77.16573682421573,9.868403978537586"/><text text-anchor="middle" pointer-events="none" font-size="8px" fill="#000000" x="55.66571633572087" y="13.85205525095762" transform="rotate(180 55.66571633572087 10.85205525095762)" font-family="sans-serif">twowheeler</text></g><g class="relationship" transform="translate(-65.79078769335317 178.13699545697676) rotate(355.66514614305527)"><path class="outline" fill="#A5ABB6" stroke="none" d="M 25 0.5 L 38.03261430368539 0.5 L 38.03261430368539 -0.5 L 25 -0.5 Z M 59.03261430368539 0.5 L 72.06522860737078 0.5 L 72.06522860737078 3.5 L 79.06522860737078 0 L 72.06522860737078 -3.5 L 72.06522860737078 -0.5 L 59.03261430368539 -0.5 Z"/><text text-anchor="middle" pointer-events="none" font-size="8px" fill="#000000" x="48.53261430368539" y="3" font-family="sans-serif">road</text></g><g class="relationship" transform="translate(-65.79078769335317 178.13699545697676) rotate(355.66514614305527)"><path class="outline" fill="#A5ABB6" stroke="none" d="M 21.40063509461097,-12.933012701892217 L 21.90063509461097,-12.06698729810778 A 56.429824718165456 56.429824718165456 0 0 1 27.651667651612843,-14.963136884383552 L 27.253582420721642,-15.880485318156836 A 57.429824718165456 57.429824718165456 0 0 0 21.40063509461097,-12.933012701892217 Z M 69.58606819526399,-17.225869768846508 L 69.24703667571607,-16.28509475389712 A 56.429824718165456 56.429824718165456 0 0 1 75.17036469084309,-13.759972356271145 L 73.83836601661626,-11.071891343381468 L 81.6645534999568,-11.099988951890177 L 76.94636292314551,-17.34408037345738 L 75.61436424891869,-14.655999360567705 A 57.429824718165456 57.429824718165456 0 0 0 69.58606819526399,-17.225869768846508"/><text text-anchor="middle" pointer-events="none" font-size="8px" fill="#000000" x="48.30715261240813" y="-17.098420897974073" font-family="sans-serif">twowheeler</text></g><g class="relationship" transform="translate(-65.79078769335317 178.13699545697676) rotate(406.90014616592225)"><path class="outline" fill="#A5ABB6" stroke="none" d="M 25 0.5 L 49.04148699100619 0.5 L 49.04148699100619 -0.5 L 25 -0.5 Z M 67.0414869910062 0.5 L 91.08297398201238 0.5 L 91.08297398201238 3.5 L 98.08297398201238 0 L 91.08297398201238 -3.5 L 91.08297398201238 -0.5 L 67.0414869910062 -0.5 Z"/><text text-anchor="middle" pointer-events="none" font-size="8px" fill="#000000" x="58.04148699100619" y="3" font-family="sans-serif">trek</text></g><g class="relationship" transform="translate(18.3083511482755 268.00775449657317) rotate(342.78820369837854)"><path class="outline" fill="#A5ABB6" stroke="none" d="M 25 0.5 L 47.93354055061961 0.5 L 47.93354055061961 -0.5 L 25 -0.5 Z M 65.93354055061961 0.5 L 88.86708110123922 0.5 L 88.86708110123922 3.5 L 95.86708110123922 0 L 88.86708110123922 -3.5 L 88.86708110123922 -0.5 L 65.93354055061961 -0.5 Z"/><text text-anchor="middle" pointer-events="none" font-size="8px" fill="#000000" x="56.93354055061961" y="3" font-family="sans-serif">trek</text></g></g><g class="layer nodes"><g class="node" transform="translate(96.58874580726298,-87.12516354730847)"><circle class="outline" cx="0" cy="0" r="25" fill="#F79767" stroke="#f36924" stroke-width="2px"/><text text-anchor="middle" pointer-events="none" font-family="sans-serif" dy="1.5625" font-size="25" fill="#FFFFFF"/><text text-anchor="middle" pointer-events="none" y="5" font-size="10px" fill="#FFFFFF" font-family="sans-serif"> Darjeeli…</text></g><g class="node" transform="translate(133.7626973833002,232.24261463417955)"><circle class="outline" cx="0" cy="0" r="25" fill="#57C7E3" stroke="#23b3d7" stroke-width="2px"/><text text-anchor="middle" pointer-events="none" font-family="sans-serif" dy="1.5625" font-size="25" fill="#2A2C34"/><text text-anchor="middle" pointer-events="none" y="5" font-size="10px" fill="#2A2C34" font-family="sans-serif"> Sandak…</text></g><g class="node" transform="translate(194.50766403172705,-42.22184138234974)"><circle class="outline" cx="0" cy="0" r="25" fill="#F16667" stroke="#eb2728" stroke-width="2px"/><text text-anchor="middle" pointer-events="none" font-family="sans-serif" dy="1.5625" font-size="25" fill="#FFFFFF"/><text text-anchor="middle" pointer-events="none" y="5" font-size="10px" fill="#FFFFFF" font-family="sans-serif"> Tumbli…</text></g><g class="node" transform="translate(267.40233016026974,45.52783042265581)"><circle class="outline" cx="0" cy="0" r="25" fill="#F16667" stroke="#eb2728" stroke-width="2px"/><text text-anchor="middle" pointer-events="none" font-family="sans-serif" dy="1.5625" font-size="25" fill="#FFFFFF"/><text text-anchor="middle" pointer-events="none" y="5" font-size="10px" fill="#FFFFFF" font-family="sans-serif"> Gairibus</text></g><g class="node" transform="translate(181.11030191439858,120.34846162895903)"><circle class="outline" cx="0" cy="0" r="25" fill="#F16667" stroke="#eb2728" stroke-width="2px"/><text text-anchor="middle" pointer-events="none" font-family="sans-serif" dy="1.5625" font-size="25" fill="#FFFFFF"/><text text-anchor="middle" pointer-events="none" y="5" font-size="10px" fill="#FFFFFF" font-family="sans-serif"> BhikeB…</text></g><g class="node" transform="translate(100.71585488746693,24.325825473229315)"><circle class="outline" cx="0" cy="0" r="25" fill="#F79767" stroke="#f36924" stroke-width="2px"/><text text-anchor="middle" pointer-events="none" font-family="sans-serif" dy="1.5625" font-size="25" fill="#FFFFFF"/><text text-anchor="middle" pointer-events="none" y="5" font-size="10px" fill="#FFFFFF" font-family="sans-serif"> Rimbik</text></g><g class="node" transform="translate(-13.182775926024929,72.02938764087641)"><circle class="outline" cx="0" cy="0" r="25" fill="#F16667" stroke="#eb2728" stroke-width="2px"/><text text-anchor="middle" pointer-events="none" font-family="sans-serif" dy="1.5625" font-size="25" fill="#FFFFFF"/><text text-anchor="middle" pointer-events="none" y="5" font-size="10px" fill="#FFFFFF" font-family="sans-serif"> Sirikhola</text></g><g class="node" transform="translate(37.97674550795795,170.27119235626685)"><circle class="outline" cx="0" cy="0" r="25" fill="#F16667" stroke="#eb2728" stroke-width="2px"/><text text-anchor="middle" pointer-events="none" font-family="sans-serif" dy="1.5625" font-size="25" fill="#FFFFFF"/><text text-anchor="middle" pointer-events="none" y="5" font-size="10px" fill="#FFFFFF" font-family="sans-serif"> Gurdum</text></g><g class="node" transform="translate(-65.79078769335317,178.13699545697676)"><circle class="outline" cx="0" cy="0" r="25" fill="#F16667" stroke="#eb2728" stroke-width="2px"/><text text-anchor="middle" pointer-events="none" font-family="sans-serif" dy="1.5625" font-size="25" fill="#FFFFFF"/><text text-anchor="middle" pointer-events="none" y="5" font-size="10px" fill="#FFFFFF" font-family="sans-serif"> Ramm…</text></g><g class="node" transform="translate(18.3083511482755,268.00775449657317)"><circle class="outline" cx="0" cy="0" r="25" fill="#57C7E3" stroke="#23b3d7" stroke-width="2px"/><text text-anchor="middle" pointer-events="none" font-family="sans-serif" dy="1.5625" font-size="25" fill="#2A2C34"/><text text-anchor="middle" pointer-events="none" y="5" font-size="10px" fill="#2A2C34" font-family="sans-serif"> Sabargr…</text></g></g></svg>