<svg xmlns="http://www.w3.org/2000/svg" width="274.2080078125" height="317.8448486328125" viewBox="-36.45418930053711 -51.74104309082031 274.2080078125 317.8448486328125"><title>Neo4j Graph Visualization</title><desc>Created using Neo4j (http://www.neo4j.com/)</desc><g class="layer relationships"><g class="relationship" transform="translate(184.2759566019637 237.10382526839908) rotate(274.9119749878166)"><path class="outline" fill="#A5ABB6" stroke="none" d="M 21.40063509461097,12.933012701892217 L 21.90063509461097,12.06698729810778 A 64.2851742934654 64.2851742934654 0 0 0 31.301677602220476,16.52263772931873 L 30.947917269623307,17.457973833123532 A 65.2851742934654 65.2851742934654 0 0 1 21.40063509461097,12.933012701892217 Z M 73.46996958215465,18.72219983087919 L 73.1724020631727,17.76749905490437 A 64.2851742934654 64.2851742934654 0 0 0 82.82154790202125,13.878231054925164 L 81.47854809015314,11.195629424917046 L 89.30478500735154,11.191665098900927 L 84.6122143178454,17.455033228269322 L 83.26921450597729,14.772431598261205 A 65.2851742934654 65.2851742934654 0 0 1 73.46996958215465,18.72219983087919"/><text text-anchor="middle" pointer-events="none" font-size="8px" fill="#000000" x="52.11794059160859" y="24.15095354944681" font-family="sans-serif">twowheeler</text></g><g class="relationship" transform="translate(98.18022725217925 -22.741043637053753) rotate(377.5410271192913)"><path class="outline" fill="#A5ABB6" stroke="none" d="M 24.018736134675446,6.953439040707552 L 24.277555179777966,5.987513214418485 A 123.58063078437786 123.58063078437786 0 0 0 33.16171008204772,8.020106175760148 L 32.97478057858196,9.002479506390642 A 124.58063078437786 124.58063078437786 0 0 1 24.018736134675446,6.953439040707552 Z M 75.9276598461908,9.636561419969325 L 75.76980959539483,8.649098358217827 A 123.58063078437786 123.58063078437786 0 0 0 84.71009147911654,6.879634509020401 L 84.01950958292456,3.9602002068563853 L 91.63720183353124,5.754849134933125 L 85.63086734070585,10.772213578572423 L 84.94028544451386,7.852779276408406 A 124.58063078437786 124.58063078437786 0 0 1 75.9276598461908,9.636561419969325"/><text text-anchor="middle" pointer-events="none" font-size="8px" fill="#000000" x="54.4310640666066" y="13.68490319629187" font-family="sans-serif">twowheeler</text></g><g class="relationship" transform="translate(75.05538101332273 101.46194003885125) rotate(238.52088127626575)"><path class="outline" fill="#A5ABB6" stroke="none" d="M 24.018736134675446,-6.953439040707552 L 24.277555179777966,-5.987513214418485 A 168.11341604165847 168.11341604165847 0 0 1 44.331814793163275,-10.071351398120498 L 44.192285808816024,-11.06156938549853 A 169.11341604165847 169.11341604165847 0 0 0 24.018736134675446,-6.953439040707552 Z M 87.19967653421375,-11.598119465517158 L 87.0848945849163,-10.604728754811902 A 168.11341604165847 168.11341604165847 0 0 1 107.23479464107008,-7.022468200534285 L 106.53087189805665,-4.106221850880599 L 114.15668991409758,-5.866022858445234 L 108.17335829842132,-10.9107966667392 L 107.46943555540788,-7.994550317085515 A 169.11341604165847 169.11341604165847 0 0 0 87.19967653421375,-11.598119465517158"/><text text-anchor="middle" pointer-events="none" font-size="8px" fill="#000000" x="65.68509139890654" y="-9.202718594983423" transform="rotate(180 65.68509139890654 -12.202718594983423)" font-family="sans-serif">twowheeler</text></g><g class="relationship" transform="translate(-7.454190083810478 64.00433529003345) rotate(320.60767981412783)"><path class="outline" fill="#A5ABB6" stroke="none" d="M 21.40063509461097,12.933012701892217 L 21.90063509461097,12.06698729810778 A 89.9668571125255 89.9668571125255 0 0 0 43.56675038691776,21.04608609071252 L 43.30757368549324,22.011916012302592 A 90.9668571125255 90.9668571125255 0 0 1 21.40063509461097,12.933012701892217 Z M 86.12649565246335,23.061771557851216 L 85.91496331406688,22.084400558786626 A 89.9668571125255 89.9668571125255 0 0 0 107.99508825106655,14.177893760372415 L 106.624215934761,11.509428079051583 L 114.44998689353275,11.423935969212932 L 109.82291800614061,17.735848002133523 L 108.45204568983506,15.067382320812692 A 90.9668571125255 90.9668571125255 0 0 1 86.12649565246335,23.061771557851216"/><text text-anchor="middle" pointer-events="none" font-size="8px" fill="#000000" x="64.66661883756564" y="27.593080531467237" font-family="sans-serif">twowheeler</text></g><g class="relationship" transform="translate(2.7539163870139998 -16.61990309703127) rotate(356.3297786460032)"><path class="outline" fill="#A5ABB6" stroke="none" d="M 24.018736134675446,-6.953439040707552 L 24.277555179777966,-5.987513214418485 A 82.86611736917054 82.86611736917054 0 0 1 25.576632476355037,-6.324349279833413 L 25.33349025234442,-7.294339928707501 A 83.86611736917054 83.86611736917054 0 0 0 24.018736134675446,-6.953439040707552 Z M 63.2253807918007,-7.9648554403027845 L 63.016708961123896,-6.98686972103998 A 82.86611736917054 82.86611736917054 0 0 1 64.3268901771835,-6.696205759512649 L 63.65344222695467,-3.7727715019428683 L 71.26047810321779,-5.61206625190699 L 65.22482077748862,-10.594118102939024 L 64.55137282725978,-7.670683845369243 A 83.86611736917054 83.86611736917054 0 0 0 63.2253807918007,-7.9648554403027845"/><text text-anchor="middle" pointer-events="none" font-size="8px" fill="#000000" x="44.24991129248285" y="-6.298058527735336" font-family="sans-serif">twowhe…</text></g><g class="relationship" transform="translate(73.93527655328266 219.3744446273263) rotate(369.12818060254483)"><path class="outline" fill="#A5ABB6" stroke="none" d="M 21.40063509461097,-12.933012701892217 L 21.90063509461097,-12.06698729810778 A 64.38441973482472 64.38441973482472 0 0 1 31.34822363334776,-16.541621977572845 L 30.99496081879803,-17.477146100114 A 65.38441973482472 65.38441973482472 0 0 0 21.40063509461097,-12.933012701892217 Z M 73.51894928697028,-18.74039767572198 L 73.22184327297288,-17.78555317715346 A 64.38441973482472 64.38441973482472 0 0 1 82.91839137335857,-13.879629515732404 L 81.57526147345156,-11.19709301607843 L 89.40149818920234,-11.192749165891719 L 84.70923123990126,-17.45634484860437 L 83.36610133999424,-14.773808348950396 A 65.38441973482472 65.38441973482472 0 0 0 73.51894928697028,-18.74039767572198"/><text text-anchor="middle" pointer-events="none" font-size="8px" fill="#000000" x="52.16618649523415" y="-18.164252817695413" font-family="sans-serif">twowheeler</text></g><g class="relationship" transform="translate(2.7539163870139998 -16.61990309703127) rotate(457.21601531316776)"><path class="outline" fill="#A5ABB6" stroke="none" d="M 24.018736134675446,-6.953439040707552 L 24.277555179777966,-5.987513214418485 A 53.711489854866805 53.711489854866805 0 0 1 24.83049775767605,-6.132524488372091 L 24.58197339215498,-7.1011501331608 A 54.711489854866805 54.711489854866805 0 0 0 24.018736134675446,-6.953439040707552 Z M 49.584280855010185,-7.615722741410913 L 49.37582063595535,-6.637691894723751 A 53.711489854866805 53.711489854866805 0 0 1 49.934261412017875,-6.515554006839119 L 49.27768961990786,-3.5882833528329945 L 56.87398823671717,-5.471431600916777 L 50.80969046816456,-10.418581545513952 L 50.15311867605455,-7.491310891507828 A 54.711489854866805 54.711489854866805 0 0 0 49.584280855010185,-7.615722741410913"/><text text-anchor="middle" pointer-events="none" font-size="8px" fill="#000000" x="37.06362098922926" y="-5.306210105558279" transform="rotate(180 37.06362098922926 -8.306210105558279)" font-family="sans-serif">two…</text></g><g class="relationship" transform="translate(75.05538101332273 101.46194003885125) rotate(450.544262273611)"><path class="outline" fill="#A5ABB6" stroke="none" d="M 25 0.5 L 46.45891232953792 0.5 L 46.45891232953792 -0.5 L 25 -0.5 Z M 64.45891232953792 0.5 L 85.91782465907583 0.5 L 85.91782465907583 3.5 L 92.91782465907583 0 L 85.91782465907583 -3.5 L 85.91782465907583 -0.5 L 64.45891232953792 -0.5 Z"/><text text-anchor="middle" pointer-events="none" font-size="8px" fill="#000000" x="55.45891232953792" y="3" transform="rotate(180 55.45891232953792 0)" font-family="sans-serif">trek</text></g><g class="relationship" transform="translate(75.05538101332273 101.46194003885125) rotate(238.52088127626575)"><path class="outline" fill="#A5ABB6" stroke="none" d="M 24.018736134675446,6.953439040707552 L 24.277555179777966,5.987513214418485 A 168.11341604165847 168.11341604165847 0 0 0 56.7259620580931,11.351463771586197 L 56.660157988489466,12.349296334907109 A 169.11341604165847 169.11341604165847 0 0 1 24.018736134675446,6.953439040707552 Z M 74.70355911081599,12.574401558746558 L 74.66266909579488,11.575237905148441 A 168.11341604165847 168.11341604165847 0 0 0 107.23479464107008,7.022468200534285 L 106.53087189805665,4.106221850880599 L 114.15668991409758,5.866022858445234 L 108.17335829842132,10.9107966667392 L 107.46943555540788,7.994550317085515 A 169.11341604165847 169.11341604165847 0 0 1 74.70355911081599,12.574401558746558"/><text text-anchor="middle" pointer-events="none" font-size="8px" fill="#000000" x="65.68509139890658" y="15.202718594983423" transform="rotate(180 65.68509139890658 12.202718594983423)" font-family="sans-serif">trek</text></g><g class="relationship" transform="translate(75.05538101332273 101.46194003885125) rotate(371.6045512685786)"><path class="outline" fill="#A5ABB6" stroke="none" d="M 25 0.5 L 48.130054203891454 0.5 L 48.130054203891454 -0.5 L 25 -0.5 Z M 66.13005420389146 0.5 L 89.26010840778291 0.5 L 89.26010840778291 3.5 L 96.26010840778291 0 L 89.26010840778291 -3.5 L 89.26010840778291 -0.5 L 66.13005420389146 -0.5 Z"/><text text-anchor="middle" pointer-events="none" font-size="8px" fill="#000000" x="57.130054203891454" y="3" font-family="sans-serif">trek</text></g><g class="relationship" transform="translate(193.836844765591 125.85410599302277) rotate(277.4778903023324)"><path class="outline" fill="#A5ABB6" stroke="none" d="M 25 0.5 L 44.80959347052602 0.5 L 44.80959347052602 -0.5 L 25 -0.5 Z M 62.80959347052602 0.5 L 82.61918694105204 0.5 L 82.61918694105204 3.5 L 89.61918694105204 0 L 82.61918694105204 -3.5 L 82.61918694105204 -0.5 L 62.80959347052602 -0.5 Z"/><text text-anchor="middle" pointer-events="none" font-size="8px" fill="#000000" x="53.80959347052602" y="3" font-family="sans-serif">trek</text></g><g class="relationship" transform="translate(2.7539163870139998 -16.61990309703127) rotate(457.21601531316776)"><path class="outline" fill="#A5ABB6" stroke="none" d="M 24.018736134675446,6.953439040707552 L 24.277555179777966,5.987513214418485 A 53.711489854866805 53.711489854866805 0 0 0 28.214896842234495,6.885346953761491 L 28.029383186222752,7.867988639948862 A 54.711489854866805 54.711489854866805 0 0 1 24.018736134675446,6.953439040707552 Z M 46.10823906714968,8.240069658416743 L 45.96331288449344,7.250627188345497 A 53.711489854866805 53.711489854866805 0 0 0 49.934261412017875,6.515554006839119 L 49.27768961990786,3.5882833528329945 L 56.87398823671717,5.471431600916777 L 50.80969046816456,10.418581545513952 L 50.15311867605455,7.491310891507828 A 54.711489854866805 54.711489854866805 0 0 1 46.10823906714968,8.240069658416743"/><text text-anchor="middle" pointer-events="none" font-size="8px" fill="#000000" x="37.063620989229264" y="11.306210105558279" transform="rotate(180 37.063620989229264 8.306210105558279)" font-family="sans-serif">trek</text></g><g class="relationship" transform="translate(2.7539163870139998 -16.61990309703127) rotate(356.3297786460032)"><path class="outline" fill="#A5ABB6" stroke="none" d="M 24.018736134675446,6.953439040707552 L 24.277555179777966,5.987513214418485 A 82.86611736917054 82.86611736917054 0 0 0 35.340036703669284,8.157813794263248 L 35.21471590700777,9.149930066644728 A 83.86611736917054 83.86611736917054 0 0 1 24.018736134675446,6.953439040707552 Z M 53.28469083202404,9.469687099320225 L 53.19454946718505,8.473758118747327 A 82.86611736917054 82.86611736917054 0 0 0 64.3268901771835,6.696205759512649 L 63.65344222695467,3.7727715019428683 L 71.26047810321779,5.61206625190699 L 65.22482077748862,10.594118102939024 L 64.55137282725978,7.670683845369243 A 83.86611736917054 83.86611736917054 0 0 1 53.28469083202404,9.469687099320225"/><text text-anchor="middle" pointer-events="none" font-size="8px" fill="#000000" x="44.249911292482885" y="12.298058527735336" font-family="sans-serif">trek</text></g><g class="relationship" transform="translate(98.18022725217925 -22.741043637053753) rotate(377.5410271192913)"><path class="outline" fill="#A5ABB6" stroke="none" d="M 24.018736134675446,-6.953439040707552 L 24.277555179777966,-5.987513214418485 A 123.58063078437786 123.58063078437786 0 0 1 45.48834099193579,-9.727855554581183 L 45.401157143041054,-10.724047793304166 A 124.58063078437786 124.58063078437786 0 0 0 24.018736134675446,-6.953439040707552 Z M 63.45588069650719,-10.990576460418453 L 63.3981405436547,-9.992244814747252 A 123.58063078437786 123.58063078437786 0 0 1 84.71009147911654,-6.879634509020401 L 84.01950958292456,-3.9602002068563853 L 91.63720183353124,-5.754849134933125 L 85.63086734070585,-10.772213578572423 L 84.94028544451386,-7.852779276408406 A 124.58063078437786 124.58063078437786 0 0 0 63.45588069650719,-10.990576460418453"/><text text-anchor="middle" pointer-events="none" font-size="8px" fill="#000000" x="54.431064066606595" y="-7.68490319629187" font-family="sans-serif">trek</text></g><g class="relationship" transform="translate(73.93527655328266 219.3744446273263) rotate(369.12818060254483)"><path class="outline" fill="#A5ABB6" stroke="none" d="M 25 0.5 L 41.877984509826064 0.5 L 41.877984509826064 -0.5 L 25 -0.5 Z M 62.877984509826064 0.5 L 79.75596901965213 0.5 L 79.75596901965213 3.5 L 86.75596901965213 0 L 79.75596901965213 -3.5 L 79.75596901965213 -0.5 L 62.877984509826064 -0.5 Z"/><text text-anchor="middle" pointer-events="none" font-size="8px" fill="#000000" x="52.377984509826064" y="3" font-family="sans-serif">road</text></g><g class="relationship" transform="translate(73.93527655328266 219.3744446273263) rotate(369.12818060254483)"><path class="outline" fill="#A5ABB6" stroke="none" d="M 21.40063509461097,12.933012701892217 L 21.90063509461097,12.06698729810778 A 64.38441973482472 64.38441973482472 0 0 0 43.30128496449829,19.78202718842323 L 43.133673606937386,20.767880338145133 A 65.38441973482472 65.38441973482472 0 0 1 21.40063509461097,12.933012701892217 Z M 61.206300315754795,21.304760226125907 L 61.09750596715338,20.310695947664797 A 64.38441973482472 64.38441973482472 0 0 0 82.91839137335857,13.879629515732404 L 81.57526147345156,11.19709301607843 L 89.40149818920234,11.192749165891719 L 84.70923123990126,17.45634484860437 L 83.36610133999424,14.773808348950396 A 65.38441973482472 65.38441973482472 0 0 1 61.206300315754795,21.304760226125907"/><text text-anchor="middle" pointer-events="none" font-size="8px" fill="#000000" x="52.16618649523416" y="24.164252817695413" font-family="sans-serif">trek</text></g><g class="relationship" transform="translate(184.2759566019637 237.10382526839908) rotate(274.9119749878166)"><path class="outline" fill="#A5ABB6" stroke="none" d="M 25 0.5 L 41.82989929537627 0.5 L 41.82989929537627 -0.5 L 25 -0.5 Z M 62.82989929537627 0.5 L 79.65979859075254 0.5 L 79.65979859075254 3.5 L 86.65979859075254 0 L 79.65979859075254 -3.5 L 79.65979859075254 -0.5 L 62.82989929537627 -0.5 Z"/><text text-anchor="middle" pointer-events="none" font-size="8px" fill="#000000" x="52.32989929537627" y="3" font-family="sans-serif">road</text></g><g class="relationship" transform="translate(184.2759566019637 237.10382526839908) rotate(274.9119749878166)"><path class="outline" fill="#A5ABB6" stroke="none" d="M 21.40063509461097,-12.933012701892217 L 21.90063509461097,-12.06698729810778 A 64.2851742934654 64.2851742934654 0 0 1 43.25329387739406,-19.767582240216697 L 43.085449137412596,-20.753395682639024 A 65.2851742934654 65.2851742934654 0 0 0 21.40063509461097,-12.933012701892217 Z M 61.158096614923004,-21.29071478053706 L 61.04911514324006,-20.296670999393683 A 64.2851742934654 64.2851742934654 0 0 1 82.82154790202125,-13.878231054925164 L 81.47854809015314,-11.195629424917046 L 89.30478500735154,-11.191665098900927 L 84.6122143178454,-17.455033228269322 L 83.26921450597729,-14.772431598261205 A 65.2851742934654 65.2851742934654 0 0 0 61.158096614923004,-21.29071478053706"/><text text-anchor="middle" pointer-events="none" font-size="8px" fill="#000000" x="52.11794059160857" y="-18.15095354944681" font-family="sans-serif">trek</text></g><g class="relationship" transform="translate(-7.454190083810478 64.00433529003345) rotate(320.60767981412783)"><path class="outline" fill="#A5ABB6" stroke="none" d="M 25 0.5 L 54.34360045226984 0.5 L 54.34360045226984 -0.5 L 25 -0.5 Z M 75.34360045226984 0.5 L 104.68720090453968 0.5 L 104.68720090453968 3.5 L 111.68720090453968 0 L 104.68720090453968 -3.5 L 104.68720090453968 -0.5 L 75.34360045226984 -0.5 Z"/><text text-anchor="middle" pointer-events="none" font-size="8px" fill="#000000" x="64.84360045226984" y="3" font-family="sans-serif">road</text></g><g class="relationship" transform="translate(-7.454190083810478 64.00433529003345) rotate(320.60767981412783)"><path class="outline" fill="#A5ABB6" stroke="none" d="M 21.40063509461097,-12.933012701892217 L 21.90063509461097,-12.06698729810778 A 89.9668571125255 89.9668571125255 0 0 1 55.75696065607293,-23.42950872863112 L 55.63328063265182,-24.421830879853474 A 90.9668571125255 90.9668571125255 0 0 0 21.40063509461097,-12.933012701892217 Z M 73.69749518791092,-24.86473824313198 L 73.62259503467588,-23.867547204741953 A 89.9668571125255 89.9668571125255 0 0 1 107.99508825106655,-14.177893760372415 L 106.624215934761,-11.509428079051583 L 114.44998689353275,-11.423935969212932 L 109.82291800614061,-17.735848002133523 L 108.45204568983506,-15.067382320812692 A 90.9668571125255 90.9668571125255 0 0 0 73.69749518791092,-24.86473824313198"/><text text-anchor="middle" pointer-events="none" font-size="8px" fill="#000000" x="64.66661883756561" y="-21.593080531467237" font-family="sans-serif">trek</text></g></g><g class="layer nodes"><g class="node" transform="translate(184.2759566019637,237.10382526839908)"><circle class="outline" cx="0" cy="0" r="25" fill="#F16667" stroke="#eb2728" stroke-width="2px"/><text text-anchor="middle" pointer-events="none" font-family="sans-serif" dy="1.5625" font-size="25" fill="#FFFFFF"/><text text-anchor="middle" pointer-events="none" y="5" font-size="10px" fill="#FFFFFF" font-family="sans-serif"> Gairibus</text></g><g class="node" transform="translate(193.836844765591,125.85410599302277)"><circle class="outline" cx="0" cy="0" r="25" fill="#F16667" stroke="#eb2728" stroke-width="2px"/><text text-anchor="middle" pointer-events="none" font-family="sans-serif" dy="1.5625" font-size="25" fill="#FFFFFF"/><text text-anchor="middle" pointer-events="none" y="5" font-size="10px" fill="#FFFFFF" font-family="sans-serif"> BhikeB…</text></g><g class="node" transform="translate(98.18022725217925,-22.741043637053753)"><circle class="outline" cx="0" cy="0" r="25" fill="#F16667" stroke="#eb2728" stroke-width="2px"/><text text-anchor="middle" pointer-events="none" font-family="sans-serif" dy="1.5625" font-size="25" fill="#FFFFFF"/><text text-anchor="middle" pointer-events="none" y="5" font-size="10px" fill="#FFFFFF" font-family="sans-serif"> Gurdum</text></g><g class="node" transform="translate(208.75379801723196,12.20973736564118)"><circle class="outline" cx="0" cy="0" r="25" fill="#57C7E3" stroke="#23b3d7" stroke-width="2px"/><text text-anchor="middle" pointer-events="none" font-family="sans-serif" dy="1.5625" font-size="25" fill="#2A2C34"/><text text-anchor="middle" pointer-events="none" y="5" font-size="10px" fill="#2A2C34" font-family="sans-serif"> Sandak…</text></g><g class="node" transform="translate(75.05538101332273,101.46194003885125)"><circle class="outline" cx="0" cy="0" r="25" fill="#F79767" stroke="#f36924" stroke-width="2px"/><text text-anchor="middle" pointer-events="none" font-family="sans-serif" dy="1.5625" font-size="25" fill="#FFFFFF"/><text text-anchor="middle" pointer-events="none" y="5" font-size="10px" fill="#FFFFFF" font-family="sans-serif"> Rimbik</text></g><g class="node" transform="translate(2.7539163870139998,-16.61990309703127)"><circle class="outline" cx="0" cy="0" r="25" fill="#F16667" stroke="#eb2728" stroke-width="2px"/><text text-anchor="middle" pointer-events="none" font-family="sans-serif" dy="1.5625" font-size="25" fill="#FFFFFF"/><text text-anchor="middle" pointer-events="none" y="5" font-size="10px" fill="#FFFFFF" font-family="sans-serif"> Sirikhola</text></g><g class="node" transform="translate(-7.454190083810478,64.00433529003345)"><circle class="outline" cx="0" cy="0" r="25" fill="#F16667" stroke="#eb2728" stroke-width="2px"/><text text-anchor="middle" pointer-events="none" font-family="sans-serif" dy="1.5625" font-size="25" fill="#FFFFFF"/><text text-anchor="middle" pointer-events="none" y="5" font-size="10px" fill="#FFFFFF" font-family="sans-serif"> Ramm…</text></g><g class="node" transform="translate(73.93527655328266,219.3744446273263)"><circle class="outline" cx="0" cy="0" r="25" fill="#F16667" stroke="#eb2728" stroke-width="2px"/><text text-anchor="middle" pointer-events="none" font-family="sans-serif" dy="1.5625" font-size="25" fill="#FFFFFF"/><text text-anchor="middle" pointer-events="none" y="5" font-size="10px" fill="#FFFFFF" font-family="sans-serif"> Tumbli…</text></g></g></svg>