<svg xmlns="http://www.w3.org/2000/svg" width="575.2109375" height="616.1552124023438" viewBox="-176.87948608398438 -192.75303649902344 575.2109375 616.1552124023438"><title>Neo4j Graph Visualization</title><desc>Created using Neo4j (http://www.neo4j.com/)</desc><g class="layer relationships"><g class="relationship" transform="translate(183.53780998290372 167.06259298039797) rotate(213.40511763869296)"><path class="outline" fill="#A5ABB6" stroke="none" d="M 25 0.5 L 42.103887648359645 0.5 L 42.103887648359645 -0.5 L 25 -0.5 Z M 76.10388764835965 0.5 L 93.20777529671929 0.5 L 93.20777529671929 3.5 L 100.20777529671929 0 L 93.20777529671929 -3.5 L 93.20777529671929 -0.5 L 76.10388764835965 -0.5 Z"/><text text-anchor="middle" pointer-events="none" font-size="8px" fill="#000000" x="59.103887648359645" y="3" transform="rotate(180 59.103887648359645 0)" font-family="sans-serif">ORIGIN</text></g><g class="relationship" transform="translate(183.53780998290372 167.06259298039797) rotate(385.0326965069961)"><path class="outline" fill="#A5ABB6" stroke="none" d="M 25 0.5 L 45.823411283655034 0.5 L 45.823411283655034 -0.5 L 25 -0.5 Z M 103.82341128365503 0.5 L 124.64682256731007 0.5 L 124.64682256731007 3.5 L 131.64682256731007 0 L 124.64682256731007 -3.5 L 124.64682256731007 -0.5 L 103.82341128365503 -0.5 Z"/><text text-anchor="middle" pointer-events="none" font-size="8px" fill="#000000" x="74.82341128365503" y="3" font-family="sans-serif">DESTINATION</text></g><g class="relationship" transform="translate(242.19316820312142 178.7586888506052) rotate(206.29491784180402)"><path class="outline" fill="#A5ABB6" stroke="none" d="M 25 0.5 L 70.50611402948773 0.5 L 70.50611402948773 -0.5 L 25 -0.5 Z M 104.50611402948773 0.5 L 150.01222805897547 0.5 L 150.01222805897547 3.5 L 157.01222805897547 0 L 150.01222805897547 -3.5 L 150.01222805897547 -0.5 L 104.50611402948773 -0.5 Z"/><text text-anchor="middle" pointer-events="none" font-size="8px" fill="#000000" x="87.50611402948773" y="3" transform="rotate(180 87.50611402948773 0)" font-family="sans-serif">ORIGIN</text></g><g class="relationship" transform="translate(242.19316820312142 178.7586888506052) rotate(393.2441654932311)"><path class="outline" fill="#A5ABB6" stroke="none" d="M 25 0.5 L 27.7864966930146 0.5 L 27.7864966930146 -0.5 L 25 -0.5 Z M 64.7864966930146 0.5 L 67.5729933860292 0.5 L 67.5729933860292 3.5 L 74.5729933860292 0 L 67.5729933860292 -3.5 L 67.5729933860292 -0.5 L 64.7864966930146 -0.5 Z"/><text text-anchor="middle" pointer-events="none" font-size="8px" fill="#000000" x="46.2864966930146" y="3" font-family="sans-serif">DESTI…</text></g><g class="relationship" transform="translate(195.76649062162429 225.7249577105109) rotate(227.54112671395688)"><path class="outline" fill="#A5ABB6" stroke="none" d="M 25 0.5 L 65.97514741469101 0.5 L 65.97514741469101 -0.5 L 25 -0.5 Z M 99.97514741469101 0.5 L 140.95029482938202 0.5 L 140.95029482938202 3.5 L 147.95029482938202 0 L 140.95029482938202 -3.5 L 140.95029482938202 -0.5 L 99.97514741469101 -0.5 Z"/><text text-anchor="middle" pointer-events="none" font-size="8px" fill="#000000" x="82.97514741469101" y="3" transform="rotate(180 82.97514741469101 0)" font-family="sans-serif">ORIGIN</text></g><g class="relationship" transform="translate(195.76649062162429 225.7249577105109) rotate(363.36241802623834)"><path class="outline" fill="#A5ABB6" stroke="none" d="M 25 0.5 L 32.463710379432584 0.5 L 32.463710379432584 -0.5 L 25 -0.5 Z M 90.46371037943258 0.5 L 97.92742075886517 0.5 L 97.92742075886517 3.5 L 104.92742075886517 0 L 97.92742075886517 -3.5 L 97.92742075886517 -0.5 L 90.46371037943258 -0.5 Z"/><text text-anchor="middle" pointer-events="none" font-size="8px" fill="#000000" x="61.463710379432584" y="3" font-family="sans-serif">DESTINATION</text></g><g class="relationship" transform="translate(241.1311055771834 118.86328972915715) rotate(187.28848631176487)"><path class="outline" fill="#A5ABB6" stroke="none" d="M 25 0.5 L 61.21858096477426 0.5 L 61.21858096477426 -0.5 L 25 -0.5 Z M 95.21858096477426 0.5 L 131.43716192954852 0.5 L 131.43716192954852 3.5 L 138.43716192954852 0 L 131.43716192954852 -3.5 L 131.43716192954852 -0.5 L 95.21858096477426 -0.5 Z"/><text text-anchor="middle" pointer-events="none" font-size="8px" fill="#000000" x="78.21858096477426" y="3" transform="rotate(180 78.21858096477426 0)" font-family="sans-serif">ORIGIN</text></g><g class="relationship" transform="translate(241.1311055771834 118.86328972915715) rotate(413.6208730427648)"><path class="outline" fill="#A5ABB6" stroke="none" d="M 25 0.5 L 38.597196335536594 0.5 L 38.597196335536594 -0.5 L 25 -0.5 Z M 96.5971963355366 0.5 L 110.19439267107319 0.5 L 110.19439267107319 3.5 L 117.19439267107319 0 L 110.19439267107319 -3.5 L 110.19439267107319 -0.5 L 96.5971963355366 -0.5 Z"/><text text-anchor="middle" pointer-events="none" font-size="8px" fill="#000000" x="67.5971963355366" y="3" font-family="sans-serif">DESTINATION</text></g><g class="relationship" transform="translate(229.8183924956176 43.37564444711193) rotate(520.0452964250819)"><path class="outline" fill="#A5ABB6" stroke="none" d="M 25 0.5 L 59.71800571350214 0.5 L 59.71800571350214 -0.5 L 25 -0.5 Z M 93.71800571350214 0.5 L 128.43601142700427 0.5 L 128.43601142700427 3.5 L 135.43601142700427 0 L 128.43601142700427 -3.5 L 128.43601142700427 -0.5 L 93.71800571350214 -0.5 Z"/><text text-anchor="middle" pointer-events="none" font-size="8px" fill="#000000" x="76.71800571350214" y="3" transform="rotate(180 76.71800571350214 0)" font-family="sans-serif">ORIGIN</text></g><g class="relationship" transform="translate(229.8183924956176 43.37564444711193) rotate(339.9048761890184)"><path class="outline" fill="#A5ABB6" stroke="none" d="M 25 0.5 L 41.77833546935109 0.5 L 41.77833546935109 -0.5 L 25 -0.5 Z M 99.77833546935109 0.5 L 116.55667093870218 0.5 L 116.55667093870218 3.5 L 123.55667093870218 0 L 116.55667093870218 -3.5 L 116.55667093870218 -0.5 L 99.77833546935109 -0.5 Z"/><text text-anchor="middle" pointer-events="none" font-size="8px" fill="#000000" x="70.77833546935109" y="3" font-family="sans-serif">DESTINATION</text></g><g class="relationship" transform="translate(188.36789288701092 -21.829963265112465) rotate(492.3520330933259)"><path class="outline" fill="#A5ABB6" stroke="none" d="M 25 0.5 L 60.66073786225765 0.5 L 60.66073786225765 -0.5 L 25 -0.5 Z M 94.66073786225765 0.5 L 130.3214757245153 0.5 L 130.3214757245153 3.5 L 137.3214757245153 0 L 130.3214757245153 -3.5 L 130.3214757245153 -0.5 L 94.66073786225765 -0.5 Z"/><text text-anchor="middle" pointer-events="none" font-size="8px" fill="#000000" x="77.66073786225765" y="3" transform="rotate(180 77.66073786225765 0)" font-family="sans-serif">ORIGIN</text></g><g class="relationship" transform="translate(188.36789288701092 -21.829963265112465) rotate(264.072034649658)"><path class="outline" fill="#A5ABB6" stroke="none" d="M 25 0.5 L 38.843038082888356 0.5 L 38.843038082888356 -0.5 L 25 -0.5 Z M 96.84303808288836 0.5 L 110.68607616577671 0.5 L 110.68607616577671 3.5 L 117.68607616577671 0 L 110.68607616577671 -3.5 L 110.68607616577671 -0.5 L 96.84303808288836 -0.5 Z"/><text text-anchor="middle" pointer-events="none" font-size="8px" fill="#000000" x="67.84303808288836" y="3" transform="rotate(180 67.84303808288836 0)" font-family="sans-serif">DESTINATION</text></g><g class="relationship" transform="translate(108.37412298065553 -23.96891444554794) rotate(463.5206452899097)"><path class="outline" fill="#A5ABB6" stroke="none" d="M 25 0.5 L 42.28900188319269 0.5 L 42.28900188319269 -0.5 L 25 -0.5 Z M 76.2890018831927 0.5 L 93.57800376638538 0.5 L 93.57800376638538 3.5 L 100.57800376638538 0 L 93.57800376638538 -3.5 L 93.57800376638538 -0.5 L 76.2890018831927 -0.5 Z"/><text text-anchor="middle" pointer-events="none" font-size="8px" fill="#000000" x="59.28900188319269" y="3" transform="rotate(180 59.28900188319269 0)" font-family="sans-serif">ORIGIN</text></g><g class="relationship" transform="translate(108.37412298065553 -23.96891444554794) rotate(295.0252559199579)"><path class="outline" fill="#A5ABB6" stroke="none" d="M 25 0.5 L 44.6332150386111 0.5 L 44.6332150386111 -0.5 L 25 -0.5 Z M 102.6332150386111 0.5 L 122.2664300772222 0.5 L 122.2664300772222 3.5 L 129.2664300772222 0 L 122.2664300772222 -3.5 L 122.2664300772222 -0.5 L 102.6332150386111 -0.5 Z"/><text text-anchor="middle" pointer-events="none" font-size="8px" fill="#000000" x="73.6332150386111" y="3" font-family="sans-serif">DESTINATION</text></g><g class="relationship" transform="translate(78.33786113696296 -75.83810990074832) rotate(449.7771433756106)"><path class="outline" fill="#A5ABB6" stroke="none" d="M 25 0.5 L 66.48410689056887 0.5 L 66.48410689056887 -0.5 L 25 -0.5 Z M 100.48410689056887 0.5 L 141.96821378113773 0.5 L 141.96821378113773 3.5 L 148.96821378113773 0 L 141.96821378113773 -3.5 L 141.96821378113773 -0.5 L 100.48410689056887 -0.5 Z"/><text text-anchor="middle" pointer-events="none" font-size="8px" fill="#000000" x="83.48410689056887" y="3" font-family="sans-serif">ORIGIN</text></g><g class="relationship" transform="translate(78.33786113696296 -75.83810990074832) rotate(317.306356293072)"><path class="outline" fill="#A5ABB6" stroke="none" d="M 25 0.5 L 32.326540603437294 0.5 L 32.326540603437294 -0.5 L 25 -0.5 Z M 90.3265406034373 0.5 L 97.65308120687459 0.5 L 97.65308120687459 3.5 L 104.65308120687459 0 L 97.65308120687459 -3.5 L 97.65308120687459 -0.5 L 90.3265406034373 -0.5 Z"/><text text-anchor="middle" pointer-events="none" font-size="8px" fill="#000000" x="61.326540603437294" y="3" font-family="sans-serif">DESTINATION</text></g><g class="relationship" transform="translate(149.4838524820832 -67.39653854750587) rotate(473.0609776719003)"><path class="outline" fill="#A5ABB6" stroke="none" d="M 25 0.5 L 69.4507644381307 0.5 L 69.4507644381307 -0.5 L 25 -0.5 Z M 103.4507644381307 0.5 L 147.9015288762614 0.5 L 147.9015288762614 3.5 L 154.9015288762614 0 L 147.9015288762614 -3.5 L 147.9015288762614 -0.5 L 103.4507644381307 -0.5 Z"/><text text-anchor="middle" pointer-events="none" font-size="8px" fill="#000000" x="86.4507644381307" y="3" transform="rotate(180 86.4507644381307 0)" font-family="sans-serif">ORIGIN</text></g><g class="relationship" transform="translate(149.4838524820832 -67.39653854750587) rotate(284.069023525364)"><path class="outline" fill="#A5ABB6" stroke="none" d="M 25 0.5 L 27.668110883531455 0.5 L 27.668110883531455 -0.5 L 25 -0.5 Z M 64.66811088353145 0.5 L 67.33622176706291 0.5 L 67.33622176706291 3.5 L 74.33622176706291 0 L 67.33622176706291 -3.5 L 67.33622176706291 -0.5 L 64.66811088353145 -0.5 Z"/><text text-anchor="middle" pointer-events="none" font-size="8px" fill="#000000" x="46.168110883531455" y="3" font-family="sans-serif">DESTI…</text></g><g class="relationship" transform="translate(-45.842700308587446 -3.2776258081608183) rotate(399.08277840477285)"><path class="outline" fill="#A5ABB6" stroke="none" d="M 25 0.5 L 59.92478934647332 0.5 L 59.92478934647332 -0.5 L 25 -0.5 Z M 93.92478934647332 0.5 L 128.84957869294664 0.5 L 128.84957869294664 3.5 L 135.84957869294664 0 L 128.84957869294664 -3.5 L 128.84957869294664 -0.5 L 93.92478934647332 -0.5 Z"/><text text-anchor="middle" pointer-events="none" font-size="8px" fill="#000000" x="76.92478934647332" y="3" font-family="sans-serif">ORIGIN</text></g><g class="relationship" transform="translate(-45.842700308587446 -3.2776258081608183) rotate(246.07052764208015)"><path class="outline" fill="#A5ABB6" stroke="none" d="M 25 0.5 L 34.36230432207395 0.5 L 34.36230432207395 -0.5 L 25 -0.5 Z M 92.36230432207395 0.5 L 101.7246086441479 0.5 L 101.7246086441479 3.5 L 108.7246086441479 0 L 101.7246086441479 -3.5 L 101.7246086441479 -0.5 L 92.36230432207395 -0.5 Z"/><text text-anchor="middle" pointer-events="none" font-size="8px" fill="#000000" x="63.36230432207395" y="3" transform="rotate(180 63.36230432207395 0)" font-family="sans-serif">DESTINATION</text></g><g class="relationship" transform="translate(1.8479929987871648 -39.617905054574734) rotate(420.74218732397486)"><path class="outline" fill="#A5ABB6" stroke="none" d="M 25 0.5 L 58.44432338968879 0.5 L 58.44432338968879 -0.5 L 25 -0.5 Z M 92.44432338968879 0.5 L 125.88864677937758 0.5 L 125.88864677937758 3.5 L 132.88864677937758 0 L 125.88864677937758 -3.5 L 125.88864677937758 -0.5 L 92.44432338968879 -0.5 Z"/><text text-anchor="middle" pointer-events="none" font-size="8px" fill="#000000" x="75.44432338968879" y="3" font-family="sans-serif">ORIGIN</text></g><g class="relationship" transform="translate(1.8479929987871648 -39.617905054574734) rotate(220.1184910218015)"><path class="outline" fill="#A5ABB6" stroke="none" d="M 25 0.5 L 34.146513267854715 0.5 L 34.146513267854715 -0.5 L 25 -0.5 Z M 92.14651326785471 0.5 L 101.29302653570943 0.5 L 101.29302653570943 3.5 L 108.29302653570943 0 L 101.29302653570943 -3.5 L 101.29302653570943 -0.5 L 92.14651326785471 -0.5 Z"/><text text-anchor="middle" pointer-events="none" font-size="8px" fill="#000000" x="63.146513267854715" y="3" transform="rotate(180 63.146513267854715 0)" font-family="sans-serif">DESTINATION</text></g><g class="relationship" transform="translate(-52.45139552588766 108.65074543492557) rotate(355.4240503199869)"><path class="outline" fill="#A5ABB6" stroke="none" d="M 25 0.5 L 45.44315607794829 0.5 L 45.44315607794829 -0.5 L 25 -0.5 Z M 79.44315607794829 0.5 L 99.88631215589658 0.5 L 99.88631215589658 3.5 L 106.88631215589658 0 L 99.88631215589658 -3.5 L 99.88631215589658 -0.5 L 79.44315607794829 -0.5 Z"/><text text-anchor="middle" pointer-events="none" font-size="8px" fill="#000000" x="62.44315607794829" y="3" font-family="sans-serif">ORIGIN</text></g><g class="relationship" transform="translate(-52.45139552588766 108.65074543492557) rotate(486.5027582326126)"><path class="outline" fill="#A5ABB6" stroke="none" d="M 25 0.5 L 47.71034699522487 0.5 L 47.71034699522487 -0.5 L 25 -0.5 Z M 105.71034699522487 0.5 L 128.42069399044973 0.5 L 128.42069399044973 3.5 L 135.42069399044973 0 L 128.42069399044973 -3.5 L 128.42069399044973 -0.5 L 105.71034699522487 -0.5 Z"/><text text-anchor="middle" pointer-events="none" font-size="8px" fill="#000000" x="76.71034699522487" y="3" transform="rotate(180 76.71034699522487 0)" font-family="sans-serif">DESTINATION</text></g><g class="relationship" transform="translate(-83.33235740999139 159.9845738328209) rotate(339.1426587653058)"><path class="outline" fill="#A5ABB6" stroke="none" d="M 25 0.5 L 66.36576978757013 0.5 L 66.36576978757013 -0.5 L 25 -0.5 Z M 100.36576978757013 0.5 L 141.73153957514026 0.5 L 141.73153957514026 3.5 L 148.73153957514026 0 L 141.73153957514026 -3.5 L 141.73153957514026 -0.5 L 100.36576978757013 -0.5 Z"/><text text-anchor="middle" pointer-events="none" font-size="8px" fill="#000000" x="83.36576978757013" y="3" font-family="sans-serif">ORIGIN</text></g><g class="relationship" transform="translate(-83.33235740999139 159.9845738328209) rotate(489.7473271039335)"><path class="outline" fill="#A5ABB6" stroke="none" d="M 25 0.5 L 25.474518145035056 0.5 L 25.474518145035056 -0.5 L 25 -0.5 Z M 68.47451814503506 0.5 L 68.94903629007011 0.5 L 68.94903629007011 3.5 L 75.94903629007011 0 L 68.94903629007011 -3.5 L 68.94903629007011 -0.5 L 68.47451814503506 -0.5 Z"/><text text-anchor="middle" pointer-events="none" font-size="8px" fill="#000000" x="46.974518145035056" y="3" transform="rotate(180 46.974518145035056 0)" font-family="sans-serif">DESTIN…</text></g><g class="relationship" transform="translate(-48.83811364476534 215.4359571241387) rotate(317.4630405492102)"><path class="outline" fill="#A5ABB6" stroke="none" d="M 25 0.5 L 66.2572311903262 0.5 L 66.2572311903262 -0.5 L 25 -0.5 Z M 100.2572311903262 0.5 L 141.5144623806524 0.5 L 141.5144623806524 3.5 L 148.5144623806524 0 L 141.5144623806524 -3.5 L 141.5144623806524 -0.5 L 100.2572311903262 -0.5 Z"/><text text-anchor="middle" pointer-events="none" font-size="8px" fill="#000000" x="83.2572311903262" y="3" font-family="sans-serif">ORIGIN</text></g><g class="relationship" transform="translate(-48.83811364476534 215.4359571241387) rotate(527.3850694625824)"><path class="outline" fill="#A5ABB6" stroke="none" d="M 25 0.5 L 25.745693943767556 0.5 L 25.745693943767556 -0.5 L 25 -0.5 Z M 68.74569394376755 0.5 L 69.49138788753511 0.5 L 69.49138788753511 3.5 L 76.49138788753511 0 L 69.49138788753511 -3.5 L 69.49138788753511 -0.5 L 68.74569394376755 -0.5 Z"/><text text-anchor="middle" pointer-events="none" font-size="8px" fill="#000000" x="47.245693943767556" y="3" transform="rotate(180 47.245693943767556 0)" font-family="sans-serif">DESTIN…</text></g><g class="relationship" transform="translate(-112.30531009890302 107.51687281928221) rotate(357.19074323602194)"><path class="outline" fill="#A5ABB6" stroke="none" d="M 25 0.5 L 75.27501590961137 0.5 L 75.27501590961137 -0.5 L 25 -0.5 Z M 109.27501590961137 0.5 L 159.55003181922274 0.5 L 159.55003181922274 3.5 L 166.55003181922274 0 L 159.55003181922274 -3.5 L 159.55003181922274 -0.5 L 109.27501590961137 -0.5 Z"/><text text-anchor="middle" pointer-events="none" font-size="8px" fill="#000000" x="92.27501590961137" y="3" font-family="sans-serif">ORIGIN</text></g><g class="relationship" transform="translate(-112.30531009890302 107.51687281928221) rotate(465.2947015755484)"><path class="outline" fill="#A5ABB6" stroke="none" d="M 25 0.5 L 34.930544577827106 0.5 L 34.930544577827106 -0.5 L 25 -0.5 Z M 92.9305445778271 0.5 L 102.86108915565421 0.5 L 102.86108915565421 3.5 L 109.86108915565421 0 L 102.86108915565421 -3.5 L 102.86108915565421 -0.5 L 92.9305445778271 -0.5 Z"/><text text-anchor="middle" pointer-events="none" font-size="8px" fill="#000000" x="63.930544577827106" y="3" transform="rotate(180 63.930544577827106 0)" font-family="sans-serif">DESTINATION</text></g><g class="relationship" transform="translate(-23.469635508657444 161.16229633001754) rotate(328.4061515311263)"><path class="outline" fill="#A5ABB6" stroke="none" d="M 25 0.5 L 39.65859443277295 0.5 L 39.65859443277295 -0.5 L 25 -0.5 Z M 73.65859443277296 0.5 L 88.3171888655459 0.5 L 88.3171888655459 3.5 L 95.3171888655459 0 L 88.3171888655459 -3.5 L 88.3171888655459 -0.5 L 73.65859443277296 -0.5 Z"/><text text-anchor="middle" pointer-events="none" font-size="8px" fill="#000000" x="56.65859443277295" y="3" font-family="sans-serif">ORIGIN</text></g><g class="relationship" transform="translate(-23.469635508657444 161.16229633001754) rotate(508.4328600058606)"><path class="outline" fill="#A5ABB6" stroke="none" d="M 25 0.5 L 40.50813655325926 0.5 L 40.50813655325926 -0.5 L 25 -0.5 Z M 98.50813655325926 0.5 L 114.01627310651853 0.5 L 114.01627310651853 3.5 L 121.01627310651853 0 L 114.01627310651853 -3.5 L 114.01627310651853 -0.5 L 98.50813655325926 -0.5 Z"/><text text-anchor="middle" pointer-events="none" font-size="8px" fill="#000000" x="69.50813655325926" y="3" transform="rotate(180 69.50813655325926 0)" font-family="sans-serif">DESTINATION</text></g><g class="relationship" transform="translate(-14.555528726222425 264.6470985003302) rotate(299.3325247614737)"><path class="outline" fill="#A5ABB6" stroke="none" d="M 25 0.5 L 75.0035370394495 0.5 L 75.0035370394495 -0.5 L 25 -0.5 Z M 109.0035370394495 0.5 L 159.007074078899 0.5 L 159.007074078899 3.5 L 166.007074078899 0 L 159.007074078899 -3.5 L 159.007074078899 -0.5 L 109.0035370394495 -0.5 Z"/><text text-anchor="middle" pointer-events="none" font-size="8px" fill="#000000" x="92.0035370394495" y="3" font-family="sans-serif">ORIGIN</text></g><g class="relationship" transform="translate(-14.555528726222425 264.6470985003302) rotate(191.46723265045716)"><path class="outline" fill="#A5ABB6" stroke="none" d="M 25 0.5 L 35.5197514560314 0.5 L 35.5197514560314 -0.5 L 25 -0.5 Z M 93.5197514560314 0.5 L 104.0395029120628 0.5 L 104.0395029120628 3.5 L 111.0395029120628 0 L 104.0395029120628 -3.5 L 104.0395029120628 -0.5 L 93.5197514560314 -0.5 Z"/><text text-anchor="middle" pointer-events="none" font-size="8px" fill="#000000" x="64.5197514560314" y="3" transform="rotate(180 64.5197514560314 0)" font-family="sans-serif">DESTINATION</text></g><g class="relationship" transform="translate(10.810903894310094 210.4261130554531) rotate(301.27234257744163)"><path class="outline" fill="#A5ABB6" stroke="none" d="M 25 0.5 L 45.19327001025948 0.5 L 45.19327001025948 -0.5 L 25 -0.5 Z M 79.19327001025948 0.5 L 99.38654002051896 0.5 L 99.38654002051896 3.5 L 106.38654002051896 0 L 99.38654002051896 -3.5 L 99.38654002051896 -0.5 L 79.19327001025948 -0.5 Z"/><text text-anchor="middle" pointer-events="none" font-size="8px" fill="#000000" x="62.19327001025948" y="3" font-family="sans-serif">ORIGIN</text></g><g class="relationship" transform="translate(10.810903894310094 210.4261130554531) rotate(530.2825067826147)"><path class="outline" fill="#A5ABB6" stroke="none" d="M 25 0.5 L 48.000214359710256 0.5 L 48.000214359710256 -0.5 L 25 -0.5 Z M 106.00021435971026 0.5 L 129.0004287194205 0.5 L 129.0004287194205 3.5 L 136.0004287194205 0 L 129.0004287194205 -3.5 L 129.0004287194205 -0.5 L 106.00021435971026 -0.5 Z"/><text text-anchor="middle" pointer-events="none" font-size="8px" fill="#000000" x="77.00021435971026" y="3" transform="rotate(180 77.00021435971026 0)" font-family="sans-serif">DESTINATION</text></g><g class="relationship" transform="translate(112.51283226824073 253.71500871972347) rotate(257.84948183331545)"><path class="outline" fill="#A5ABB6" stroke="none" d="M 25 0.5 L 59.07576393951453 0.5 L 59.07576393951453 -0.5 L 25 -0.5 Z M 93.07576393951453 0.5 L 127.15152787902906 0.5 L 127.15152787902906 3.5 L 134.15152787902906 0 L 127.15152787902906 -3.5 L 127.15152787902906 -0.5 L 93.07576393951453 -0.5 Z"/><text text-anchor="middle" pointer-events="none" font-size="8px" fill="#000000" x="76.07576393951453" y="3" transform="rotate(180 76.07576393951453 0)" font-family="sans-serif">ORIGIN</text></g><g class="relationship" transform="translate(112.51283226824073 253.71500871972347) rotate(433.1616162529331)"><path class="outline" fill="#A5ABB6" stroke="none" d="M 25 0.5 L 40.99462601639114 0.5 L 40.99462601639114 -0.5 L 25 -0.5 Z M 98.99462601639114 0.5 L 114.98925203278228 0.5 L 114.98925203278228 3.5 L 121.98925203278228 0 L 114.98925203278228 -3.5 L 114.98925203278228 -0.5 L 98.99462601639114 -0.5 Z"/><text text-anchor="middle" pointer-events="none" font-size="8px" fill="#000000" x="69.99462601639114" y="3" font-family="sans-serif">DESTINATION</text></g></g><g class="layer nodes"><g class="node" transform="translate(79.01452303852675,98.12878791280299)"><circle class="outline" cx="0" cy="0" r="25" fill="#57C7E3" stroke="#23b3d7" stroke-width="2px"/><text text-anchor="middle" pointer-events="none" font-family="sans-serif" dy="1.5625" font-size="25" fill="#2A2C34"/><text text-anchor="middle" pointer-events="none" y="5" font-size="10px" fill="#2A2C34" font-family="sans-serif"> LAX</text></g><g class="node" transform="translate(325.47024313933184,233.34540703298916)"><circle class="outline" cx="0" cy="0" r="25" fill="#57C7E3" stroke="#23b3d7" stroke-width="2px"/><text text-anchor="middle" pointer-events="none" font-family="sans-serif" dy="1.5625" font-size="25" fill="#2A2C34"/><text text-anchor="middle" pointer-events="none" y="5" font-size="10px" fill="#2A2C34" font-family="sans-serif"> FAT</text></g><g class="node" transform="translate(369.33145266796623,-7.66542256501533)"><circle class="outline" cx="0" cy="0" r="25" fill="#57C7E3" stroke="#23b3d7" stroke-width="2px"/><text text-anchor="middle" pointer-events="none" font-family="sans-serif" dy="1.5625" font-size="25" fill="#2A2C34"/><text text-anchor="middle" pointer-events="none" y="5" font-size="10px" fill="#2A2C34" font-family="sans-serif"> LAS</text></g><g class="node" transform="translate(173.63155653509378,-163.75302947532722)"><circle class="outline" cx="0" cy="0" r="25" fill="#57C7E3" stroke="#23b3d7" stroke-width="2px"/><text text-anchor="middle" pointer-events="none" font-family="sans-serif" dy="1.5625" font-size="25" fill="#2A2C34"/><text text-anchor="middle" pointer-events="none" y="5" font-size="10px" fill="#2A2C34" font-family="sans-serif"> SMF</text></g><g class="node" transform="translate(-100.08298165964231,-125.50799370415027)"><circle class="outline" cx="0" cy="0" r="25" fill="#57C7E3" stroke="#23b3d7" stroke-width="2px"/><text text-anchor="middle" pointer-events="none" font-family="sans-serif" dy="1.5625" font-size="25" fill="#2A2C34"/><text text-anchor="middle" pointer-events="none" y="5" font-size="10px" fill="#2A2C34" font-family="sans-serif"> TUS</text></g><g class="node" transform="translate(-147.87948760528954,237.6014271022309)"><circle class="outline" cx="0" cy="0" r="25" fill="#57C7E3" stroke="#23b3d7" stroke-width="2px"/><text text-anchor="middle" pointer-events="none" font-family="sans-serif" dy="1.5625" font-size="25" fill="#2A2C34"/><text text-anchor="middle" pointer-events="none" y="5" font-size="10px" fill="#2A2C34" font-family="sans-serif"> ABQ</text></g><g class="node" transform="translate(155.09165900971283,394.4021926650868)"><circle class="outline" cx="0" cy="0" r="25" fill="#57C7E3" stroke="#23b3d7" stroke-width="2px"/><text text-anchor="middle" pointer-events="none" font-family="sans-serif" dy="1.5625" font-size="25" fill="#2A2C34"/><text text-anchor="middle" pointer-events="none" y="5" font-size="10px" fill="#2A2C34" font-family="sans-serif"> IAH</text></g><g class="node" transform="translate(183.53780998290372,167.06259298039797)"><circle class="outline" cx="0" cy="0" r="25" fill="#F79767" stroke="#f36924" stroke-width="2px"/><text text-anchor="middle" pointer-events="none" font-family="sans-serif" dy="1.5625" font-size="25" fill="#FFFFFF"/><text text-anchor="middle" pointer-events="none" y="5" font-size="10px" fill="#FFFFFF" font-family="sans-serif"> 11/3/20…</text></g><g class="node" transform="translate(242.19316820312142,178.7586888506052)"><circle class="outline" cx="0" cy="0" r="25" fill="#F79767" stroke="#f36924" stroke-width="2px"/><text text-anchor="middle" pointer-events="none" font-family="sans-serif" dy="1.5625" font-size="25" fill="#FFFFFF"/><text text-anchor="middle" pointer-events="none" y="5" font-size="10px" fill="#FFFFFF" font-family="sans-serif"> 11/1/20…</text></g><g class="node" transform="translate(195.76649062162429,225.7249577105109)"><circle class="outline" cx="0" cy="0" r="25" fill="#F79767" stroke="#f36924" stroke-width="2px"/><text text-anchor="middle" pointer-events="none" font-family="sans-serif" dy="1.5625" font-size="25" fill="#FFFFFF"/><text text-anchor="middle" pointer-events="none" y="5" font-size="10px" fill="#FFFFFF" font-family="sans-serif"> 11/2/20…</text></g><g class="node" transform="translate(241.1311055771834,118.86328972915715)"><circle class="outline" cx="0" cy="0" r="25" fill="#F79767" stroke="#f36924" stroke-width="2px"/><text text-anchor="middle" pointer-events="none" font-family="sans-serif" dy="1.5625" font-size="25" fill="#FFFFFF"/><text text-anchor="middle" pointer-events="none" y="5" font-size="10px" fill="#FFFFFF" font-family="sans-serif"> 11/4/20…</text></g><g class="node" transform="translate(229.8183924956176,43.37564444711193)"><circle class="outline" cx="0" cy="0" r="25" fill="#F79767" stroke="#f36924" stroke-width="2px"/><text text-anchor="middle" pointer-events="none" font-family="sans-serif" dy="1.5625" font-size="25" fill="#FFFFFF"/><text text-anchor="middle" pointer-events="none" y="5" font-size="10px" fill="#FFFFFF" font-family="sans-serif"> 11/29/2…</text></g><g class="node" transform="translate(188.36789288701092,-21.829963265112465)"><circle class="outline" cx="0" cy="0" r="25" fill="#F79767" stroke="#f36924" stroke-width="2px"/><text text-anchor="middle" pointer-events="none" font-family="sans-serif" dy="1.5625" font-size="25" fill="#FFFFFF"/><text text-anchor="middle" pointer-events="none" y="5" font-size="10px" fill="#FFFFFF" font-family="sans-serif"> 11/2/20…</text></g><g class="node" transform="translate(108.37412298065553,-23.96891444554794)"><circle class="outline" cx="0" cy="0" r="25" fill="#F79767" stroke="#f36924" stroke-width="2px"/><text text-anchor="middle" pointer-events="none" font-family="sans-serif" dy="1.5625" font-size="25" fill="#FFFFFF"/><text text-anchor="middle" pointer-events="none" y="5" font-size="10px" fill="#FFFFFF" font-family="sans-serif"> 11/3/20…</text></g><g class="node" transform="translate(78.33786113696296,-75.83810990074832)"><circle class="outline" cx="0" cy="0" r="25" fill="#F79767" stroke="#f36924" stroke-width="2px"/><text text-anchor="middle" pointer-events="none" font-family="sans-serif" dy="1.5625" font-size="25" fill="#FFFFFF"/><text text-anchor="middle" pointer-events="none" y="5" font-size="10px" fill="#FFFFFF" font-family="sans-serif"> 11/1/20…</text></g><g class="node" transform="translate(149.4838524820832,-67.39653854750587)"><circle class="outline" cx="0" cy="0" r="25" fill="#F79767" stroke="#f36924" stroke-width="2px"/><text text-anchor="middle" pointer-events="none" font-family="sans-serif" dy="1.5625" font-size="25" fill="#FFFFFF"/><text text-anchor="middle" pointer-events="none" y="5" font-size="10px" fill="#FFFFFF" font-family="sans-serif"> 11/4/20…</text></g><g class="node" transform="translate(-45.842700308587446,-3.2776258081608183)"><circle class="outline" cx="0" cy="0" r="25" fill="#F79767" stroke="#f36924" stroke-width="2px"/><text text-anchor="middle" pointer-events="none" font-family="sans-serif" dy="1.5625" font-size="25" fill="#FFFFFF"/><text text-anchor="middle" pointer-events="none" y="5" font-size="10px" fill="#FFFFFF" font-family="sans-serif"> 11/1/20…</text></g><g class="node" transform="translate(1.8479929987871648,-39.617905054574734)"><circle class="outline" cx="0" cy="0" r="25" fill="#F79767" stroke="#f36924" stroke-width="2px"/><text text-anchor="middle" pointer-events="none" font-family="sans-serif" dy="1.5625" font-size="25" fill="#FFFFFF"/><text text-anchor="middle" pointer-events="none" y="5" font-size="10px" fill="#FFFFFF" font-family="sans-serif"> 11/2/20…</text></g><g class="node" transform="translate(-52.45139552588766,108.65074543492557)"><circle class="outline" cx="0" cy="0" r="25" fill="#F79767" stroke="#f36924" stroke-width="2px"/><text text-anchor="middle" pointer-events="none" font-family="sans-serif" dy="1.5625" font-size="25" fill="#FFFFFF"/><text text-anchor="middle" pointer-events="none" y="5" font-size="10px" fill="#FFFFFF" font-family="sans-serif"> 11/2/20…</text></g><g class="node" transform="translate(-83.33235740999139,159.9845738328209)"><circle class="outline" cx="0" cy="0" r="25" fill="#F79767" stroke="#f36924" stroke-width="2px"/><text text-anchor="middle" pointer-events="none" font-family="sans-serif" dy="1.5625" font-size="25" fill="#FFFFFF"/><text text-anchor="middle" pointer-events="none" y="5" font-size="10px" fill="#FFFFFF" font-family="sans-serif"> 11/3/20…</text></g><g class="node" transform="translate(-48.83811364476534,215.4359571241387)"><circle class="outline" cx="0" cy="0" r="25" fill="#F79767" stroke="#f36924" stroke-width="2px"/><text text-anchor="middle" pointer-events="none" font-family="sans-serif" dy="1.5625" font-size="25" fill="#FFFFFF"/><text text-anchor="middle" pointer-events="none" y="5" font-size="10px" fill="#FFFFFF" font-family="sans-serif"> 11/4/20…</text></g><g class="node" transform="translate(-112.30531009890302,107.51687281928221)"><circle class="outline" cx="0" cy="0" r="25" fill="#F79767" stroke="#f36924" stroke-width="2px"/><text text-anchor="middle" pointer-events="none" font-family="sans-serif" dy="1.5625" font-size="25" fill="#FFFFFF"/><text text-anchor="middle" pointer-events="none" y="5" font-size="10px" fill="#FFFFFF" font-family="sans-serif"> 11/3/20…</text></g><g class="node" transform="translate(-23.469635508657444,161.16229633001754)"><circle class="outline" cx="0" cy="0" r="25" fill="#F79767" stroke="#f36924" stroke-width="2px"/><text text-anchor="middle" pointer-events="none" font-family="sans-serif" dy="1.5625" font-size="25" fill="#FFFFFF"/><text text-anchor="middle" pointer-events="none" y="5" font-size="10px" fill="#FFFFFF" font-family="sans-serif"> 11/1/20…</text></g><g class="node" transform="translate(-14.555528726222425,264.6470985003302)"><circle class="outline" cx="0" cy="0" r="25" fill="#F79767" stroke="#f36924" stroke-width="2px"/><text text-anchor="middle" pointer-events="none" font-family="sans-serif" dy="1.5625" font-size="25" fill="#FFFFFF"/><text text-anchor="middle" pointer-events="none" y="5" font-size="10px" fill="#FFFFFF" font-family="sans-serif"> 11/1/20…</text></g><g class="node" transform="translate(10.810903894310094,210.4261130554531)"><circle class="outline" cx="0" cy="0" r="25" fill="#F79767" stroke="#f36924" stroke-width="2px"/><text text-anchor="middle" pointer-events="none" font-family="sans-serif" dy="1.5625" font-size="25" fill="#FFFFFF"/><text text-anchor="middle" pointer-events="none" y="5" font-size="10px" fill="#FFFFFF" font-family="sans-serif"> 11/2/20…</text></g><g class="node" transform="translate(112.51283226824073,253.71500871972347)"><circle class="outline" cx="0" cy="0" r="25" fill="#F79767" stroke="#f36924" stroke-width="2px"/><text text-anchor="middle" pointer-events="none" font-family="sans-serif" dy="1.5625" font-size="25" fill="#FFFFFF"/><text text-anchor="middle" pointer-events="none" y="5" font-size="10px" fill="#FFFFFF" font-family="sans-serif"> 11/30/2…</text></g></g></svg>