<svg xmlns="http://www.w3.org/2000/svg" width="285.4924011230469" height="264.70941162109375" viewBox="-33.41767501831055 -33.88993835449219 285.4924011230469 264.70941162109375"><title>Neo4j Graph Visualization</title><desc>Created using Neo4j (http://www.neo4j.com/)</desc><g class="layer relationships"><g class="relationship" transform="translate(53.98011527695898 200.356591664353) rotate(299.05283639423)"><path class="outline" fill="#A5ABB6" stroke="none" d="M 25 0.5 L 30.278800080637644 0.5 L 30.278800080637644 -0.5 L 25 -0.5 Z M 77.27880008063764 0.5 L 82.55760016127529 0.5 L 82.55760016127529 3.5 L 89.55760016127529 0 L 82.55760016127529 -3.5 L 82.55760016127529 -0.5 L 77.27880008063764 -0.5 Z"/><text text-anchor="middle" pointer-events="none" font-size="8px" fill="#000000" x="53.778800080637644" y="3" font-family="sans-serif">DIRECTED</text></g><g class="relationship" transform="translate(163.8580066316528 201.81948054784448) rotate(241.90247511965453)"><path class="outline" fill="#A5ABB6" stroke="none" d="M 25 0.5 L 36.5901411680246 0.5 L 36.5901411680246 -0.5 L 25 -0.5 Z M 71.5901411680246 0.5 L 83.1802823360492 0.5 L 83.1802823360492 3.5 L 90.1802823360492 0 L 83.1802823360492 -3.5 L 83.1802823360492 -0.5 L 71.5901411680246 -0.5 Z"/><text text-anchor="middle" pointer-events="none" font-size="8px" fill="#000000" x="54.0901411680246" y="3" transform="rotate(180 54.0901411680246 0)" font-family="sans-serif">WROTE</text></g><g class="relationship" transform="translate(223.0747436085987 94.77362750285798) rotate(537.2551191550206)"><path class="outline" fill="#A5ABB6" stroke="none" d="M 25 0.5 L 30.79697953401628 0.5 L 30.79697953401628 -0.5 L 25 -0.5 Z M 75.79697953401629 0.5 L 81.59395906803256 0.5 L 81.59395906803256 3.5 L 88.59395906803256 0 L 81.59395906803256 -3.5 L 81.59395906803256 -0.5 L 75.79697953401629 -0.5 Z"/><text text-anchor="middle" pointer-events="none" font-size="8px" fill="#000000" x="53.29697953401628" y="3" transform="rotate(180 53.29697953401628 0)" font-family="sans-serif">ACTED_IN</text></g><g class="relationship" transform="translate(153.10649986410357 -4.889937145989934) rotate(472.48143650958)"><path class="outline" fill="#A5ABB6" stroke="none" d="M 25 0.5 L 30.873949061873354 0.5 L 30.873949061873354 -0.5 L 25 -0.5 Z M 75.87394906187336 0.5 L 81.74789812374671 0.5 L 81.74789812374671 3.5 L 88.74789812374671 0 L 81.74789812374671 -3.5 L 81.74789812374671 -0.5 L 75.87394906187336 -0.5 Z"/><text text-anchor="middle" pointer-events="none" font-size="8px" fill="#000000" x="53.373949061873354" y="3" transform="rotate(180 53.373949061873354 0)" font-family="sans-serif">ACTED_IN</text></g><g class="relationship" transform="translate(34.80742909469876 12.264611313325052) rotate(409.6176481352563)"><path class="outline" fill="#A5ABB6" stroke="none" d="M 25 0.5 L 36.72911114012442 0.5 L 36.72911114012442 -0.5 L 25 -0.5 Z M 71.72911114012442 0.5 L 83.45822228024883 0.5 L 83.45822228024883 3.5 L 90.45822228024883 0 L 83.45822228024883 -3.5 L 83.45822228024883 -0.5 L 71.72911114012442 -0.5 Z"/><text text-anchor="middle" pointer-events="none" font-size="8px" fill="#000000" x="54.22911114012442" y="3" font-family="sans-serif">WROTE</text></g><g class="relationship" transform="translate(-4.417675342062365 113.06291948462781) rotate(353.5707116315866)"><path class="outline" fill="#A5ABB6" stroke="none" d="M 25 0.5 L 31.375238713640933 0.5 L 31.375238713640933 -0.5 L 25 -0.5 Z M 76.37523871364093 0.5 L 82.75047742728187 0.5 L 82.75047742728187 3.5 L 89.75047742728187 0 L 82.75047742728187 -3.5 L 82.75047742728187 -0.5 L 76.37523871364093 -0.5 Z"/><text text-anchor="middle" pointer-events="none" font-size="8px" fill="#000000" x="53.87523871364093" y="3" font-family="sans-serif">ACTED_IN</text></g></g><g class="layer nodes"><g class="node" transform="translate(53.98011527695898,200.356591664353)"><circle class="outline" cx="0" cy="0" r="25" fill="#57C7E3" stroke="#23b3d7" stroke-width="2px"/><text text-anchor="middle" pointer-events="none" font-family="sans-serif" dy="1.5625" font-size="25" fill="#2A2C34"/><text text-anchor="middle" pointer-events="none" font-family="sans-serif" dy="1.5625" font-size="25" fill="#2A2C34"/><text text-anchor="middle" pointer-events="none" x="0" y="0" font-size="10px" fill="#2A2C34" font-family="sans-serif"> Joe</text><text text-anchor="middle" pointer-events="none" x="0" y="10" font-size="10px" fill="#2A2C34" font-family="sans-serif"> Johnston</text></g><g class="node" transform="translate(163.8580066316528,201.81948054784448)"><circle class="outline" cx="0" cy="0" r="25" fill="#57C7E3" stroke="#23b3d7" stroke-width="2px"/><text text-anchor="middle" pointer-events="none" font-family="sans-serif" dy="1.5625" font-size="25" fill="#2A2C34"/><text text-anchor="middle" pointer-events="none" font-family="sans-serif" dy="1.5625" font-size="25" fill="#2A2C34"/><text text-anchor="middle" pointer-events="none" x="0" y="0" font-size="10px" fill="#2A2C34" font-family="sans-serif"> Stephen</text><text text-anchor="middle" pointer-events="none" x="0" y="10" font-size="10px" fill="#2A2C34" font-family="sans-serif"> McFeely</text></g><g class="node" transform="translate(223.0747436085987,94.77362750285798)"><circle class="outline" cx="0" cy="0" r="25" fill="#57C7E3" stroke="#23b3d7" stroke-width="2px"/><text text-anchor="middle" pointer-events="none" font-family="sans-serif" dy="1.5625" font-size="25" fill="#2A2C34"/><text text-anchor="middle" pointer-events="none" font-family="sans-serif" dy="1.5625" font-size="25" fill="#2A2C34"/><text text-anchor="middle" pointer-events="none" x="0" y="0" font-size="10px" fill="#2A2C34" font-family="sans-serif"> Chris</text><text text-anchor="middle" pointer-events="none" x="0" y="10" font-size="10px" fill="#2A2C34" font-family="sans-serif"> Evans</text></g><g class="node" transform="translate(109.61111439334616,100.21351555809817)"><circle class="outline" cx="0" cy="0" r="25" fill="#F79767" stroke="#f36924" stroke-width="2px"/><text text-anchor="middle" pointer-events="none" font-family="sans-serif" dy="1.5625" font-size="25" fill="#FFFFFF"/><text text-anchor="middle" pointer-events="none" font-family="sans-serif" dy="1.5625" font-size="25" fill="#FFFFFF"/><text text-anchor="middle" pointer-events="none" x="0" y="0" font-size="10px" fill="#FFFFFF" font-family="sans-serif"> Captain</text><text text-anchor="middle" pointer-events="none" x="0" y="10" font-size="10px" fill="#FFFFFF" font-family="sans-serif"> Americ…</text></g><g class="node" transform="translate(153.10649986410357,-4.889937145989934)"><circle class="outline" cx="0" cy="0" r="25" fill="#57C7E3" stroke="#23b3d7" stroke-width="2px"/><text text-anchor="middle" pointer-events="none" font-family="sans-serif" dy="1.5625" font-size="25" fill="#2A2C34"/><text text-anchor="middle" pointer-events="none" font-family="sans-serif" dy="1.5625" font-size="25" fill="#2A2C34"/><text text-anchor="middle" pointer-events="none" x="0" y="0" font-size="10px" fill="#2A2C34" font-family="sans-serif"> Hayley</text><text text-anchor="middle" pointer-events="none" x="0" y="10" font-size="10px" fill="#2A2C34" font-family="sans-serif"> Atwell</text></g><g class="node" transform="translate(34.80742909469876,12.264611313325052)"><circle class="outline" cx="0" cy="0" r="25" fill="#57C7E3" stroke="#23b3d7" stroke-width="2px"/><text text-anchor="middle" pointer-events="none" font-family="sans-serif" dy="1.5625" font-size="25" fill="#2A2C34"/><text text-anchor="middle" pointer-events="none" x="0" y="5" font-size="10px" fill="#2A2C34" font-family="sans-serif"> Christop…</text></g><g class="node" transform="translate(-4.417675342062365,113.06291948462781)"><circle class="outline" cx="0" cy="0" r="25" fill="#57C7E3" stroke="#23b3d7" stroke-width="2px"/><text text-anchor="middle" pointer-events="none" font-family="sans-serif" dy="1.5625" font-size="25" fill="#2A2C34"/><text text-anchor="middle" pointer-events="none" x="0" y="5" font-size="10px" fill="#2A2C34" font-family="sans-serif"> Sebasti…</text></g></g></svg>