<svg xmlns="http://www.w3.org/2000/svg" width="843.6690673828125" height="836.9185791015625" viewBox="-330.641357421875 -316.55322265625 843.6690673828125 836.9185791015625"><title>Neo4j Graph Visualization</title><desc>Created using Neo4j (http://www.neo4j.com/)</desc><g class="layer relationships"><g class="relationship" transform="translate(106.11075131783943 396.02007948461574) rotate(185.99267147946762)"><path class="outline" fill="#A5ABB6" stroke="none" d="M 25 0.5 L 30.62738172671014 0.5 L 30.62738172671014 -0.5 L 25 -0.5 Z M 75.62738172671014 0.5 L 81.25476345342028 0.5 L 81.25476345342028 3.5 L 88.25476345342028 0 L 81.25476345342028 -3.5 L 81.25476345342028 -0.5 L 75.62738172671014 -0.5 Z"/><text text-anchor="middle" pointer-events="none" font-size="8px" fill="#000000" x="53.12738172671014" y="3" transform="rotate(180 53.12738172671014 0)" font-family="sans-serif">ACTED_IN</text></g><g class="relationship" transform="translate(106.11075131783943 396.02007948461574) rotate(392.6518871306441)"><path class="outline" fill="#A5ABB6" stroke="none" d="M 25 0.5 L 30.072207668697175 0.5 L 30.072207668697175 -0.5 L 25 -0.5 Z M 75.07220766869717 0.5 L 80.14441533739435 0.5 L 80.14441533739435 3.5 L 87.14441533739435 0 L 80.14441533739435 -3.5 L 80.14441533739435 -0.5 L 75.07220766869717 -0.5 Z"/><text text-anchor="middle" pointer-events="none" font-size="8px" fill="#000000" x="52.572207668697175" y="3" font-family="sans-serif">ACTED_IN</text></g><g class="relationship" transform="translate(106.11075131783943 396.02007948461574) rotate(478.9609162033658)"><path class="outline" fill="#A5ABB6" stroke="none" d="M 25 0.5 L 28.48610564819328 0.5 L 28.48610564819328 -0.5 L 25 -0.5 Z M 73.48610564819327 0.5 L 76.97221129638656 0.5 L 76.97221129638656 3.5 L 83.97221129638656 0 L 76.97221129638656 -3.5 L 76.97221129638656 -0.5 L 73.48610564819327 -0.5 Z"/><text text-anchor="middle" pointer-events="none" font-size="8px" fill="#000000" x="50.98610564819328" y="3" transform="rotate(180 50.98610564819328 0)" font-family="sans-serif">ACTED_IN</text></g><g class="relationship" transform="translate(106.11075131783943 396.02007948461574) rotate(261.36264015181536)"><path class="outline" fill="#A5ABB6" stroke="none" d="M 25 0.5 L 29.873030655938358 0.5 L 29.873030655938358 -0.5 L 25 -0.5 Z M 74.87303065593835 0.5 L 79.74606131187672 0.5 L 79.74606131187672 3.5 L 86.74606131187672 0 L 79.74606131187672 -3.5 L 79.74606131187672 -0.5 L 74.87303065593835 -0.5 Z"/><text text-anchor="middle" pointer-events="none" font-size="8px" fill="#000000" x="52.37303065593836" y="3" transform="rotate(180 52.37303065593836 0)" font-family="sans-serif">ACTED_IN</text></g><g class="relationship" transform="translate(106.11075131783943 396.02007948461574) rotate(334.28665420453365)"><path class="outline" fill="#A5ABB6" stroke="none" d="M 25 0.5 L 30.14772039300636 0.5 L 30.14772039300636 -0.5 L 25 -0.5 Z M 75.14772039300635 0.5 L 80.29544078601272 0.5 L 80.29544078601272 3.5 L 87.29544078601272 0 L 80.29544078601272 -3.5 L 80.29544078601272 -0.5 L 75.14772039300635 -0.5 Z"/><text text-anchor="middle" pointer-events="none" font-size="8px" fill="#000000" x="52.64772039300636" y="3" font-family="sans-serif">ACTED_IN</text></g><g class="relationship" transform="translate(380.57081756627866 88.99584318189741) rotate(444.35366595375217)"><path class="outline" fill="#A5ABB6" stroke="none" d="M 25 0.5 L 30.94532334775662 0.5 L 30.94532334775662 -0.5 L 25 -0.5 Z M 75.94532334775661 0.5 L 81.89064669551324 0.5 L 81.89064669551324 3.5 L 88.89064669551324 0 L 81.89064669551324 -3.5 L 81.89064669551324 -0.5 L 75.94532334775661 -0.5 Z"/><text text-anchor="middle" pointer-events="none" font-size="8px" fill="#000000" x="53.44532334775662" y="3" font-family="sans-serif">ACTED_IN</text></g><g class="relationship" transform="translate(380.57081756627866 88.99584318189741) rotate(380.12959697812596)"><path class="outline" fill="#A5ABB6" stroke="none" d="M 25 0.5 L 29.09373722494938 0.5 L 29.09373722494938 -0.5 L 25 -0.5 Z M 74.09373722494938 0.5 L 78.18747444989876 0.5 L 78.18747444989876 3.5 L 85.18747444989876 0 L 78.18747444989876 -3.5 L 78.18747444989876 -0.5 L 74.09373722494938 -0.5 Z"/><text text-anchor="middle" pointer-events="none" font-size="8px" fill="#000000" x="51.59373722494938" y="3" font-family="sans-serif">ACTED_IN</text></g><g class="relationship" transform="translate(380.57081756627866 88.99584318189741) rotate(303.3178578836763)"><path class="outline" fill="#A5ABB6" stroke="none" d="M 25 0.5 L 30.92917936506811 0.5 L 30.92917936506811 -0.5 L 25 -0.5 Z M 75.92917936506811 0.5 L 81.85835873013622 0.5 L 81.85835873013622 3.5 L 88.85835873013622 0 L 81.85835873013622 -3.5 L 81.85835873013622 -0.5 L 75.92917936506811 -0.5 Z"/><text text-anchor="middle" pointer-events="none" font-size="8px" fill="#000000" x="53.42917936506811" y="3" font-family="sans-serif">ACTED_IN</text></g><g class="relationship" transform="translate(380.57081756627866 88.99584318189741) rotate(518.2727491541855)"><path class="outline" fill="#A5ABB6" stroke="none" d="M 25 0.5 L 29.835801849305817 0.5 L 29.835801849305817 -0.5 L 25 -0.5 Z M 74.83580184930582 0.5 L 79.67160369861163 0.5 L 79.67160369861163 3.5 L 86.67160369861163 0 L 79.67160369861163 -3.5 L 79.67160369861163 -0.5 L 74.83580184930582 -0.5 Z"/><text text-anchor="middle" pointer-events="none" font-size="8px" fill="#000000" x="52.33580184930582" y="3" transform="rotate(180 52.33580184930582 0)" font-family="sans-serif">ACTED_IN</text></g><g class="relationship" transform="translate(380.57081756627866 88.99584318189741) rotate(235.17102916087617)"><path class="outline" fill="#A5ABB6" stroke="none" d="M 25 0.5 L 29.496275350998737 0.5 L 29.496275350998737 -0.5 L 25 -0.5 Z M 74.49627535099873 0.5 L 78.99255070199747 0.5 L 78.99255070199747 3.5 L 85.99255070199747 0 L 78.99255070199747 -3.5 L 78.99255070199747 -0.5 L 74.49627535099873 -0.5 Z"/><text text-anchor="middle" pointer-events="none" font-size="8px" fill="#000000" x="51.99627535099874" y="3" transform="rotate(180 51.99627535099874 0)" font-family="sans-serif">ACTED_IN</text></g><g class="relationship" transform="translate(83.71096925784488 -219.85107877800215) rotate(332.8479200126494)"><path class="outline" fill="#A5ABB6" stroke="none" d="M 25 0.5 L 29.889058258573392 0.5 L 29.889058258573392 -0.5 L 25 -0.5 Z M 74.88905825857339 0.5 L 79.77811651714678 0.5 L 79.77811651714678 3.5 L 86.77811651714678 0 L 79.77811651714678 -3.5 L 79.77811651714678 -0.5 L 74.88905825857339 -0.5 Z"/><text text-anchor="middle" pointer-events="none" font-size="8px" fill="#000000" x="52.38905825857339" y="3" font-family="sans-serif">ACTED_IN</text></g><g class="relationship" transform="translate(83.71096925784488 -219.85107877800215) rotate(388.72658260339864)"><path class="outline" fill="#A5ABB6" stroke="none" d="M 25 0.5 L 30.13063335963242 0.5 L 30.13063335963242 -0.5 L 25 -0.5 Z M 75.13063335963241 0.5 L 80.26126671926484 0.5 L 80.26126671926484 3.5 L 87.26126671926484 0 L 80.26126671926484 -3.5 L 80.26126671926484 -0.5 L 75.13063335963241 -0.5 Z"/><text text-anchor="middle" pointer-events="none" font-size="8px" fill="#000000" x="52.63063335963242" y="3" font-family="sans-serif">ACTED_IN</text></g><g class="relationship" transform="translate(83.71096925784488 -219.85107877800215) rotate(218.3832902446744)"><path class="outline" fill="#A5ABB6" stroke="none" d="M 25 0.5 L 28.51767533029893 0.5 L 28.51767533029893 -0.5 L 25 -0.5 Z M 73.51767533029893 0.5 L 77.03535066059786 0.5 L 77.03535066059786 3.5 L 84.03535066059786 0 L 77.03535066059786 -3.5 L 77.03535066059786 -0.5 L 73.51767533029893 -0.5 Z"/><text text-anchor="middle" pointer-events="none" font-size="8px" fill="#000000" x="51.01767533029893" y="3" transform="rotate(180 51.01767533029893 0)" font-family="sans-serif">ACTED_IN</text></g><g class="relationship" transform="translate(83.71096925784488 -219.85107877800215) rotate(515.3278012526803)"><path class="outline" fill="#A5ABB6" stroke="none" d="M 25 0.5 L 30.91844886322682 0.5 L 30.91844886322682 -0.5 L 25 -0.5 Z M 75.91844886322681 0.5 L 81.83689772645364 0.5 L 81.83689772645364 3.5 L 88.83689772645364 0 L 81.83689772645364 -3.5 L 81.83689772645364 -0.5 L 75.91844886322681 -0.5 Z"/><text text-anchor="middle" pointer-events="none" font-size="8px" fill="#000000" x="53.41844886322682" y="3" transform="rotate(180 53.41844886322682 0)" font-family="sans-serif">ACTED_IN</text></g><g class="relationship" transform="translate(83.71096925784488 -219.85107877800215) rotate(447.5020222315186)"><path class="outline" fill="#A5ABB6" stroke="none" d="M 25 0.5 L 30.75280609047539 0.5 L 30.75280609047539 -0.5 L 25 -0.5 Z M 75.75280609047539 0.5 L 81.50561218095078 0.5 L 81.50561218095078 3.5 L 88.50561218095078 0 L 81.50561218095078 -3.5 L 81.50561218095078 -0.5 L 75.75280609047539 -0.5 Z"/><text text-anchor="middle" pointer-events="none" font-size="8px" fill="#000000" x="53.25280609047539" y="3" font-family="sans-serif">ACTED_IN</text></g><g class="relationship" transform="translate(-194.49907890915844 107.12815700532408) rotate(256.21761253578444)"><path class="outline" fill="#A5ABB6" stroke="none" d="M 25 0.5 L 30.504770838430574 0.5 L 30.504770838430574 -0.5 L 25 -0.5 Z M 75.50477083843057 0.5 L 81.00954167686115 0.5 L 81.00954167686115 3.5 L 88.00954167686115 0 L 81.00954167686115 -3.5 L 81.00954167686115 -0.5 L 75.50477083843057 -0.5 Z"/><text text-anchor="middle" pointer-events="none" font-size="8px" fill="#000000" x="53.004770838430574" y="3" transform="rotate(180 53.004770838430574 0)" font-family="sans-serif">ACTED_IN</text></g><g class="relationship" transform="translate(-194.49907890915844 107.12815700532408) rotate(180.14687260231364)"><path class="outline" fill="#A5ABB6" stroke="none" d="M 25 0.5 L 27.571321805855156 0.5 L 27.571321805855156 -0.5 L 25 -0.5 Z M 72.57132180585515 0.5 L 75.14264361171031 0.5 L 75.14264361171031 3.5 L 82.14264361171031 0 L 75.14264361171031 -3.5 L 75.14264361171031 -0.5 L 72.57132180585515 -0.5 Z"/><text text-anchor="middle" pointer-events="none" font-size="8px" fill="#000000" x="50.071321805855156" y="3" transform="rotate(180 50.071321805855156 0)" font-family="sans-serif">ACTED_IN</text></g><g class="relationship" transform="translate(-194.49907890915844 107.12815700532408) rotate(463.1921829793678)"><path class="outline" fill="#A5ABB6" stroke="none" d="M 25 0.5 L 31.049562931651728 0.5 L 31.049562931651728 -0.5 L 25 -0.5 Z M 76.04956293165174 0.5 L 82.09912586330346 0.5 L 82.09912586330346 3.5 L 89.09912586330346 0 L 82.09912586330346 -3.5 L 82.09912586330346 -0.5 L 76.04956293165174 -0.5 Z"/><text text-anchor="middle" pointer-events="none" font-size="8px" fill="#000000" x="53.54956293165173" y="3" transform="rotate(180 53.54956293165173 0)" font-family="sans-serif">ACTED_IN</text></g><g class="relationship" transform="translate(-194.49907890915844 107.12815700532408) rotate(330.3589039414436)"><path class="outline" fill="#A5ABB6" stroke="none" d="M 25 0.5 L 29.914526745237687 0.5 L 29.914526745237687 -0.5 L 25 -0.5 Z M 74.91452674523768 0.5 L 79.82905349047537 0.5 L 79.82905349047537 3.5 L 86.82905349047537 0 L 79.82905349047537 -3.5 L 79.82905349047537 -0.5 L 74.91452674523768 -0.5 Z"/><text text-anchor="middle" pointer-events="none" font-size="8px" fill="#000000" x="52.41452674523769" y="3" font-family="sans-serif">ACTED_IN</text></g><g class="relationship" transform="translate(-194.49907890915844 107.12815700532408) rotate(395.4396227217428)"><path class="outline" fill="#A5ABB6" stroke="none" d="M 25 0.5 L 29.738452490911513 0.5 L 29.738452490911513 -0.5 L 25 -0.5 Z M 74.73845249091151 0.5 L 79.47690498182303 0.5 L 79.47690498182303 3.5 L 86.47690498182303 0 L 79.47690498182303 -3.5 L 79.47690498182303 -0.5 L 74.73845249091151 -0.5 Z"/><text text-anchor="middle" pointer-events="none" font-size="8px" fill="#000000" x="52.23845249091151" y="3" font-family="sans-serif">ACTED_IN</text></g></g><g class="layer nodes"><g class="node" transform="translate(106.11075131783943,396.02007948461574)"><circle class="outline" cx="0" cy="0" r="25" fill="#F79767" stroke="#f36924" stroke-width="2px"/><text text-anchor="middle" pointer-events="none" font-family="sans-serif" dy="1.5625" font-size="25" fill="#FFFFFF"/><text text-anchor="middle" pointer-events="none" font-family="sans-serif" dy="1.5625" font-size="25" fill="#FFFFFF"/><text text-anchor="middle" pointer-events="none" y="0" font-size="10px" fill="#FFFFFF" font-family="sans-serif"> Hugo</text><text text-anchor="middle" pointer-events="none" y="10" font-size="10px" fill="#FFFFFF" font-family="sans-serif"> Weaving</text></g><g class="node" transform="translate(-6.525103975131913,384.1961398995619)"><circle class="outline" cx="0" cy="0" r="25" fill="#57C7E3" stroke="#23b3d7" stroke-width="2px"/><text text-anchor="middle" pointer-events="none" font-family="sans-serif" dy="1.5625" font-size="25" fill="#2A2C34"/><text text-anchor="middle" pointer-events="none" font-family="sans-serif" dy="1.5625" font-size="25" fill="#2A2C34"/><text text-anchor="middle" pointer-events="none" y="0" font-size="10px" fill="#2A2C34" font-family="sans-serif"> Cloud</text><text text-anchor="middle" pointer-events="none" y="10" font-size="10px" fill="#2A2C34" font-family="sans-serif"> Atlas</text></g><g class="node" transform="translate(200.53232754595558,456.52574726841976)"><circle class="outline" cx="0" cy="0" r="25" fill="#57C7E3" stroke="#23b3d7" stroke-width="2px"/><text text-anchor="middle" pointer-events="none" font-family="sans-serif" dy="1.5625" font-size="25" fill="#2A2C34"/><text text-anchor="middle" pointer-events="none" font-family="sans-serif" dy="1.5625" font-size="25" fill="#2A2C34"/><text text-anchor="middle" pointer-events="none" y="0" font-size="10px" fill="#2A2C34" font-family="sans-serif"> V for</text><text text-anchor="middle" pointer-events="none" y="10" font-size="10px" fill="#2A2C34" font-family="sans-serif"> Vendetta</text></g><g class="node" transform="translate(53.34500156484022,491.36533887294706)"><circle class="outline" cx="0" cy="0" r="25" fill="#57C7E3" stroke="#23b3d7" stroke-width="2px"/><text text-anchor="middle" pointer-events="none" font-family="sans-serif" dy="1.5625" font-size="25" fill="#2A2C34"/><text text-anchor="middle" pointer-events="none" font-family="sans-serif" dy="1.5625" font-size="25" fill="#2A2C34"/><text text-anchor="middle" pointer-events="none" font-family="sans-serif" dy="1.5625" font-size="25" fill="#2A2C34"/><text text-anchor="middle" pointer-events="none" y="-5" font-size="10px" fill="#2A2C34" font-family="sans-serif"> The</text><text text-anchor="middle" pointer-events="none" y="5" font-size="10px" fill="#2A2C34" font-family="sans-serif"> Matrix</text><text text-anchor="middle" pointer-events="none" y="15" font-size="10px" fill="#2A2C34" font-family="sans-serif"> Revol…</text></g><g class="node" transform="translate(89.32872419386197,285.541367578983)"><circle class="outline" cx="0" cy="0" r="25" fill="#57C7E3" stroke="#23b3d7" stroke-width="2px"/><text text-anchor="middle" pointer-events="none" font-family="sans-serif" dy="1.5625" font-size="25" fill="#2A2C34"/><text text-anchor="middle" pointer-events="none" font-family="sans-serif" dy="1.5625" font-size="25" fill="#2A2C34"/><text text-anchor="middle" pointer-events="none" font-family="sans-serif" dy="1.5625" font-size="25" fill="#2A2C34"/><text text-anchor="middle" pointer-events="none" y="-5" font-size="10px" fill="#2A2C34" font-family="sans-serif"> The</text><text text-anchor="middle" pointer-events="none" y="5" font-size="10px" fill="#2A2C34" font-family="sans-serif"> Matrix</text><text text-anchor="middle" pointer-events="none" y="15" font-size="10px" fill="#2A2C34" font-family="sans-serif"> Reloa…</text></g><g class="node" transform="translate(207.28624674765254,347.2985734954044)"><circle class="outline" cx="0" cy="0" r="25" fill="#57C7E3" stroke="#23b3d7" stroke-width="2px"/><text text-anchor="middle" pointer-events="none" font-family="sans-serif" dy="1.5625" font-size="25" fill="#2A2C34"/><text text-anchor="middle" pointer-events="none" font-family="sans-serif" dy="1.5625" font-size="25" fill="#2A2C34"/><text text-anchor="middle" pointer-events="none" y="0" font-size="10px" fill="#2A2C34" font-family="sans-serif"> The</text><text text-anchor="middle" pointer-events="none" y="10" font-size="10px" fill="#2A2C34" font-family="sans-serif"> Matrix</text></g><g class="node" transform="translate(380.57081756627866,88.99584318189741)"><circle class="outline" cx="0" cy="0" r="25" fill="#F79767" stroke="#f36924" stroke-width="2px"/><text text-anchor="middle" pointer-events="none" font-family="sans-serif" dy="1.5625" font-size="25" fill="#FFFFFF"/><text text-anchor="middle" pointer-events="none" font-family="sans-serif" dy="1.5625" font-size="25" fill="#FFFFFF"/><text text-anchor="middle" pointer-events="none" y="0" font-size="10px" fill="#FFFFFF" font-family="sans-serif"> Hugo</text><text text-anchor="middle" pointer-events="none" y="10" font-size="10px" fill="#FFFFFF" font-family="sans-serif"> Weaving</text></g><g class="node" transform="translate(391.77625519725177,202.33391080359544)"><circle class="outline" cx="0" cy="0" r="25" fill="#57C7E3" stroke="#23b3d7" stroke-width="2px"/><text text-anchor="middle" pointer-events="none" font-family="sans-serif" dy="1.5625" font-size="25" fill="#2A2C34"/><text text-anchor="middle" pointer-events="none" font-family="sans-serif" dy="1.5625" font-size="25" fill="#2A2C34"/><text text-anchor="middle" pointer-events="none" y="0" font-size="10px" fill="#2A2C34" font-family="sans-serif"> V for</text><text text-anchor="middle" pointer-events="none" y="10" font-size="10px" fill="#2A2C34" font-family="sans-serif"> Vendetta</text></g><g class="node" transform="translate(484.02766691716096,126.91628421356181)"><circle class="outline" cx="0" cy="0" r="25" fill="#57C7E3" stroke="#23b3d7" stroke-width="2px"/><text text-anchor="middle" pointer-events="none" font-family="sans-serif" dy="1.5625" font-size="25" fill="#2A2C34"/><text text-anchor="middle" pointer-events="none" font-family="sans-serif" dy="1.5625" font-size="25" fill="#2A2C34"/><text text-anchor="middle" pointer-events="none" font-family="sans-serif" dy="1.5625" font-size="25" fill="#2A2C34"/><text text-anchor="middle" pointer-events="none" y="-5" font-size="10px" fill="#2A2C34" font-family="sans-serif"> The</text><text text-anchor="middle" pointer-events="none" y="5" font-size="10px" fill="#2A2C34" font-family="sans-serif"> Matrix</text><text text-anchor="middle" pointer-events="none" y="15" font-size="10px" fill="#2A2C34" font-family="sans-serif"> Reloa…</text></g><g class="node" transform="translate(443.1113119922254,-6.148323269223016)"><circle class="outline" cx="0" cy="0" r="25" fill="#57C7E3" stroke="#23b3d7" stroke-width="2px"/><text text-anchor="middle" pointer-events="none" font-family="sans-serif" dy="1.5625" font-size="25" fill="#2A2C34"/><text text-anchor="middle" pointer-events="none" font-family="sans-serif" dy="1.5625" font-size="25" fill="#2A2C34"/><text text-anchor="middle" pointer-events="none" y="0" font-size="10px" fill="#2A2C34" font-family="sans-serif"> The</text><text text-anchor="middle" pointer-events="none" y="10" font-size="10px" fill="#2A2C34" font-family="sans-serif"> Matrix</text></g><g class="node" transform="translate(276.83274331602775,130.33540079284919)"><circle class="outline" cx="0" cy="0" r="25" fill="#57C7E3" stroke="#23b3d7" stroke-width="2px"/><text text-anchor="middle" pointer-events="none" font-family="sans-serif" dy="1.5625" font-size="25" fill="#2A2C34"/><text text-anchor="middle" pointer-events="none" font-family="sans-serif" dy="1.5625" font-size="25" fill="#2A2C34"/><text text-anchor="middle" pointer-events="none" font-family="sans-serif" dy="1.5625" font-size="25" fill="#2A2C34"/><text text-anchor="middle" pointer-events="none" y="-5" font-size="10px" fill="#2A2C34" font-family="sans-serif"> The</text><text text-anchor="middle" pointer-events="none" y="5" font-size="10px" fill="#2A2C34" font-family="sans-serif"> Matrix</text><text text-anchor="middle" pointer-events="none" y="15" font-size="10px" fill="#2A2C34" font-family="sans-serif"> Revol…</text></g><g class="node" transform="translate(317.1797866242743,-2.1135608741347225)"><circle class="outline" cx="0" cy="0" r="25" fill="#57C7E3" stroke="#23b3d7" stroke-width="2px"/><text text-anchor="middle" pointer-events="none" font-family="sans-serif" dy="1.5625" font-size="25" fill="#2A2C34"/><text text-anchor="middle" pointer-events="none" font-family="sans-serif" dy="1.5625" font-size="25" fill="#2A2C34"/><text text-anchor="middle" pointer-events="none" y="0" font-size="10px" fill="#2A2C34" font-family="sans-serif"> Cloud</text><text text-anchor="middle" pointer-events="none" y="10" font-size="10px" fill="#2A2C34" font-family="sans-serif"> Atlas</text></g><g class="node" transform="translate(83.71096925784488,-219.85107877800215)"><circle class="outline" cx="0" cy="0" r="25" fill="#F79767" stroke="#f36924" stroke-width="2px"/><text text-anchor="middle" pointer-events="none" font-family="sans-serif" dy="1.5625" font-size="25" fill="#FFFFFF"/><text text-anchor="middle" pointer-events="none" font-family="sans-serif" dy="1.5625" font-size="25" fill="#FFFFFF"/><text text-anchor="middle" pointer-events="none" y="0" font-size="10px" fill="#FFFFFF" font-family="sans-serif"> Hugo</text><text text-anchor="middle" pointer-events="none" y="10" font-size="10px" fill="#FFFFFF" font-family="sans-serif"> Weaving</text></g><g class="node" transform="translate(183.17095418730352,-270.861457427378)"><circle class="outline" cx="0" cy="0" r="25" fill="#57C7E3" stroke="#23b3d7" stroke-width="2px"/><text text-anchor="middle" pointer-events="none" font-family="sans-serif" dy="1.5625" font-size="25" fill="#2A2C34"/><text text-anchor="middle" pointer-events="none" font-family="sans-serif" dy="1.5625" font-size="25" fill="#2A2C34"/><text text-anchor="middle" pointer-events="none" font-family="sans-serif" dy="1.5625" font-size="25" fill="#2A2C34"/><text text-anchor="middle" pointer-events="none" y="-5" font-size="10px" fill="#2A2C34" font-family="sans-serif"> The</text><text text-anchor="middle" pointer-events="none" y="5" font-size="10px" fill="#2A2C34" font-family="sans-serif"> Matrix</text><text text-anchor="middle" pointer-events="none" y="15" font-size="10px" fill="#2A2C34" font-family="sans-serif"> Reloa…</text></g><g class="node" transform="translate(182.15548610761087,-165.8949011184416)"><circle class="outline" cx="0" cy="0" r="25" fill="#57C7E3" stroke="#23b3d7" stroke-width="2px"/><text text-anchor="middle" pointer-events="none" font-family="sans-serif" dy="1.5625" font-size="25" fill="#2A2C34"/><text text-anchor="middle" pointer-events="none" font-family="sans-serif" dy="1.5625" font-size="25" fill="#2A2C34"/><text text-anchor="middle" pointer-events="none" font-family="sans-serif" dy="1.5625" font-size="25" fill="#2A2C34"/><text text-anchor="middle" pointer-events="none" y="-5" font-size="10px" fill="#2A2C34" font-family="sans-serif"> The</text><text text-anchor="middle" pointer-events="none" y="5" font-size="10px" fill="#2A2C34" font-family="sans-serif"> Matrix</text><text text-anchor="middle" pointer-events="none" y="15" font-size="10px" fill="#2A2C34" font-family="sans-serif"> Revol…</text></g><g class="node" transform="translate(-1.7590699761782864,-287.5532211888157)"><circle class="outline" cx="0" cy="0" r="25" fill="#57C7E3" stroke="#23b3d7" stroke-width="2px"/><text text-anchor="middle" pointer-events="none" font-family="sans-serif" dy="1.5625" font-size="25" fill="#2A2C34"/><text text-anchor="middle" pointer-events="none" font-family="sans-serif" dy="1.5625" font-size="25" fill="#2A2C34"/><text text-anchor="middle" pointer-events="none" y="0" font-size="10px" fill="#2A2C34" font-family="sans-serif"> The</text><text text-anchor="middle" pointer-events="none" y="10" font-size="10px" fill="#2A2C34" font-family="sans-serif"> Matrix</text></g><g class="node" transform="translate(-19.733852497037784,-172.33257568622093)"><circle class="outline" cx="0" cy="0" r="25" fill="#57C7E3" stroke="#23b3d7" stroke-width="2px"/><text text-anchor="middle" pointer-events="none" font-family="sans-serif" dy="1.5625" font-size="25" fill="#2A2C34"/><text text-anchor="middle" pointer-events="none" font-family="sans-serif" dy="1.5625" font-size="25" fill="#2A2C34"/><text text-anchor="middle" pointer-events="none" y="0" font-size="10px" fill="#2A2C34" font-family="sans-serif"> Cloud</text><text text-anchor="middle" pointer-events="none" y="10" font-size="10px" fill="#2A2C34" font-family="sans-serif"> Atlas</text></g><g class="node" transform="translate(88.65801219859559,-106.45332411453992)"><circle class="outline" cx="0" cy="0" r="25" fill="#57C7E3" stroke="#23b3d7" stroke-width="2px"/><text text-anchor="middle" pointer-events="none" font-family="sans-serif" dy="1.5625" font-size="25" fill="#2A2C34"/><text text-anchor="middle" pointer-events="none" font-family="sans-serif" dy="1.5625" font-size="25" fill="#2A2C34"/><text text-anchor="middle" pointer-events="none" y="0" font-size="10px" fill="#2A2C34" font-family="sans-serif"> V for</text><text text-anchor="middle" pointer-events="none" y="10" font-size="10px" fill="#2A2C34" font-family="sans-serif"> Vendetta</text></g><g class="node" transform="translate(-194.49907890915844,107.12815700532408)"><circle class="outline" cx="0" cy="0" r="25" fill="#F79767" stroke="#f36924" stroke-width="2px"/><text text-anchor="middle" pointer-events="none" font-family="sans-serif" dy="1.5625" font-size="25" fill="#FFFFFF"/><text text-anchor="middle" pointer-events="none" font-family="sans-serif" dy="1.5625" font-size="25" fill="#FFFFFF"/><text text-anchor="middle" pointer-events="none" y="0" font-size="10px" fill="#FFFFFF" font-family="sans-serif"> Hugo</text><text text-anchor="middle" pointer-events="none" y="10" font-size="10px" fill="#FFFFFF" font-family="sans-serif"> Weaving</text></g><g class="node" transform="translate(-221.42189834650307,-2.6275640462837657)"><circle class="outline" cx="0" cy="0" r="25" fill="#57C7E3" stroke="#23b3d7" stroke-width="2px"/><text text-anchor="middle" pointer-events="none" font-family="sans-serif" dy="1.5625" font-size="25" fill="#2A2C34"/><text text-anchor="middle" pointer-events="none" font-family="sans-serif" dy="1.5625" font-size="25" fill="#2A2C34"/><text text-anchor="middle" pointer-events="none" y="0" font-size="10px" fill="#2A2C34" font-family="sans-serif"> V for</text><text text-anchor="middle" pointer-events="none" y="10" font-size="10px" fill="#2A2C34" font-family="sans-serif"> Vendetta</text></g><g class="node" transform="translate(-301.64137049997663,106.8535067294108)"><circle class="outline" cx="0" cy="0" r="25" fill="#57C7E3" stroke="#23b3d7" stroke-width="2px"/><text text-anchor="middle" pointer-events="none" font-family="sans-serif" dy="1.5625" font-size="25" fill="#2A2C34"/><text text-anchor="middle" pointer-events="none" font-family="sans-serif" dy="1.5625" font-size="25" fill="#2A2C34"/><text text-anchor="middle" pointer-events="none" y="0" font-size="10px" fill="#2A2C34" font-family="sans-serif"> Cloud</text><text text-anchor="middle" pointer-events="none" y="10" font-size="10px" fill="#2A2C34" font-family="sans-serif"> Atlas</text></g><g class="node" transform="translate(-220.5385577726594,218.21621245363613)"><circle class="outline" cx="0" cy="0" r="25" fill="#57C7E3" stroke="#23b3d7" stroke-width="2px"/><text text-anchor="middle" pointer-events="none" font-family="sans-serif" dy="1.5625" font-size="25" fill="#2A2C34"/><text text-anchor="middle" pointer-events="none" font-family="sans-serif" dy="1.5625" font-size="25" fill="#2A2C34"/><text text-anchor="middle" pointer-events="none" font-family="sans-serif" dy="1.5625" font-size="25" fill="#2A2C34"/><text text-anchor="middle" pointer-events="none" y="-5" font-size="10px" fill="#2A2C34" font-family="sans-serif"> The</text><text text-anchor="middle" pointer-events="none" y="5" font-size="10px" fill="#2A2C34" font-family="sans-serif"> Matrix</text><text text-anchor="middle" pointer-events="none" y="15" font-size="10px" fill="#2A2C34" font-family="sans-serif"> Reloa…</text></g><g class="node" transform="translate(-97.30392834842108,51.82137702265651)"><circle class="outline" cx="0" cy="0" r="25" fill="#57C7E3" stroke="#23b3d7" stroke-width="2px"/><text text-anchor="middle" pointer-events="none" font-family="sans-serif" dy="1.5625" font-size="25" fill="#2A2C34"/><text text-anchor="middle" pointer-events="none" font-family="sans-serif" dy="1.5625" font-size="25" fill="#2A2C34"/><text text-anchor="middle" pointer-events="none" font-family="sans-serif" dy="1.5625" font-size="25" fill="#2A2C34"/><text text-anchor="middle" pointer-events="none" y="-5" font-size="10px" fill="#2A2C34" font-family="sans-serif"> The</text><text text-anchor="middle" pointer-events="none" y="5" font-size="10px" fill="#2A2C34" font-family="sans-serif"> Matrix</text><text text-anchor="middle" pointer-events="none" y="15" font-size="10px" fill="#2A2C34" font-family="sans-serif"> Revol…</text></g><g class="node" transform="translate(-103.67583446392453,171.76745320173765)"><circle class="outline" cx="0" cy="0" r="25" fill="#57C7E3" stroke="#23b3d7" stroke-width="2px"/><text text-anchor="middle" pointer-events="none" font-family="sans-serif" dy="1.5625" font-size="25" fill="#2A2C34"/><text text-anchor="middle" pointer-events="none" font-family="sans-serif" dy="1.5625" font-size="25" fill="#2A2C34"/><text text-anchor="middle" pointer-events="none" y="0" font-size="10px" fill="#2A2C34" font-family="sans-serif"> The</text><text text-anchor="middle" pointer-events="none" y="10" font-size="10px" fill="#2A2C34" font-family="sans-serif"> Matrix</text></g></g></svg>